<?xml version="1.0" encoding="UTF-8" standalone="no"?>
<!-- Created with Inkscape (http://www.inkscape.org/) -->

<svg
   width="42mm"
   height="12mm"
   viewBox="0 0 42 12"
   version="1.1"
   id="svg1788"
   xmlns="http://www.w3.org/2000/svg"
   xmlns:svg="http://www.w3.org/2000/svg">
  <defs
     id="defs1785" />
  <g
     id="layer1">
    <g
       aria-label="CODY"
       id="text3356"
       style="font-weight:900;font-size:14.1111px;line-height:17.4232px;font-family:Metropolis;-inkscape-font-specification:'Metropolis Heavy';text-align:center;text-anchor:middle;stroke-width:0.264583">
      <path
         d="m 5.8870331,11.016496 q -1.41111,0 -2.6246646,-0.677332 Q 2.0488139,9.6477197 1.3291478,8.4906095 0.60948166,7.3334993 0.60948166,5.9929447 q 0,-1.3405545 0.71966614,-2.4835536 0.7196661,-1.1571102 1.9332207,-1.834443 1.2135546,-0.69144394 2.6246646,-0.69144394 1.1429992,0 2.1589984,0.45155524 1.0301103,0.4515552 1.7779986,1.2558879 L 7.8061428,4.4548348 Q 7.4533653,4.0032796 6.9453657,3.7351687 6.4514771,3.4670578 5.8870331,3.4670578 q -0.6491106,0 -1.2135546,0.3527775 -0.564444,0.3386664 -0.9031104,0.9172215 -0.3386664,0.5785551 -0.3386664,1.2558879 0,0.6773328 0.3386664,1.2699991 0.3386664,0.5785551 0.9031104,0.9313326 0.564444,0.3386664 1.2135546,0.3386664 0.564444,0 1.0724437,-0.2681109 Q 7.4674764,7.996721 7.8202539,7.5451658 L 9.8240301,9.2949422 Q 9.0761418,10.099275 8.0460315,10.564941 7.0300323,11.016496 5.8870331,11.016496 Z"
         id="path723" />
      <path
         d="m 15.609569,11.016496 q -1.41111,0 -2.624664,-0.677332 Q 11.77135,9.6477197 11.051684,8.4906095 10.332018,7.3334993 10.332018,5.9929447 q 0,-1.3405545 0.719666,-2.4835536 0.719666,-1.1571102 1.933221,-1.834443 1.213554,-0.69144394 2.624664,-0.69144394 1.41111,0 2.624665,0.69144394 1.213554,0.6773328 1.933221,1.834443 0.719666,1.1429991 0.719666,2.4835536 0,1.3405546 -0.719666,2.4976648 -0.719667,1.1571102 -1.933221,1.8485545 -1.213555,0.677332 -2.624665,0.677332 z m 0,-2.4835532 q 0.649111,0 1.213555,-0.3386664 0.564444,-0.3527775 0.90311,-0.9313326 0.338667,-0.5926663 0.338667,-1.2699991 0,-0.6773328 -0.338667,-1.2558879 -0.338666,-0.5785551 -0.90311,-0.9172215 -0.564444,-0.3527775 -1.213555,-0.3527775 -0.64911,0 -1.213554,0.3527775 -0.564444,0.3386664 -0.903111,0.9172215 -0.338666,0.5785551 -0.338666,1.2558879 0,0.6773328 0.338666,1.2699991 0.338667,0.5785551 0.903111,0.9313326 0.564444,0.3386664 1.213554,0.3386664 z"
         id="path725" />
      <path
         d="m 25.769555,1.1528374 q 1.679221,0 2.991553,0.6208884 1.312333,0.6208884 2.04611,1.7215542 0.747888,1.1006658 0.747888,2.4976647 0,1.396999 -0.747888,2.5117759 -0.733777,1.1006658 -2.04611,1.7215544 -1.312332,0.620888 -2.991553,0.620888 H 22.157113 V 1.1528374 Z m 0.451555,7.2107722 q 0.719666,0 1.28411,-0.2963331 0.578556,-0.3104442 0.903111,-0.8466661 0.324555,-0.5503329 0.324555,-1.2276657 0,-0.6773328 -0.324555,-1.2135546 Q 28.083776,4.2431683 27.50522,3.9468352 26.940776,3.636391 26.22111,3.636391 h -1.326443 v 4.7272186 z"
         id="path727" />
      <path
         d="m 34.941746,7.6580546 -3.72533,-6.5052172 h 3.132664 l 1.961443,3.9369969 2.074332,-3.9369969 h 3.005664 L 37.6793,7.6580546 v 3.1891084 h -2.737554 z"
         id="path729" />
    </g>
  </g>
</svg>
