<?xml version="1.0" encoding="UTF-8" standalone="no"?>
<!-- Created with Inkscape (http://www.inkscape.org/) -->

<svg
   width="15mm"
   height="15mm"
   viewBox="0 0 15 15"
   version="1.1"
   id="svg1788"
   xmlns="http://www.w3.org/2000/svg"
   xmlns:svg="http://www.w3.org/2000/svg">
  <defs
     id="defs1785" />
  <g
     id="g202">
    <ellipse
       style="fill:#ff0000;stroke-width:0.00840462;stroke-linecap:square;stroke-dasharray:none"
       id="path3281"
       cx="0.5025"
       cy="0.50250006"
       rx="0.5025"
       ry="0.50250006" />
    <ellipse
       style="fill:#ff0000;stroke-width:0.00840462;stroke-linecap:square;stroke-dasharray:none"
       id="path3281-5"
       cx="14.4975"
       cy="0.50250006"
       rx="0.5025"
       ry="0.50250006" />
    <ellipse
       style="fill:#ff0000;stroke-width:0.00840462;stroke-linecap:square;stroke-dasharray:none"
       id="path3281-0"
       cx="14.4975"
       cy="14.497499"
       rx="0.5025"
       ry="0.50250006" />
    <ellipse
       style="fill:#ff0000;stroke-width:0.00840462;stroke-linecap:square;stroke-dasharray:none"
       id="path3281-9"
       cx="0.5025"
       cy="14.497499"
       rx="0.5025"
       ry="0.50250006" />
    <g
       aria-label="G"
       id="text3356"
       style="font-weight:900;font-size:9.87778px;line-height:12.1963px;font-family:Metropolis;-inkscape-font-specification:'Metropolis Heavy';text-align:center;text-anchor:middle;stroke-width:0.264583">
      <path
         d="m 7.554326,9.9155994 h 3.180645 v 2.8843116 q -0.523522,0.572911 -1.2643557,0.889 Q 8.7297818,14.005 7.9296816,14.005 6.9221481,14.005 6.0529034,13.530867 5.1935366,13.056733 4.6897698,12.246756 4.186003,11.436778 4.186003,10.488511 q 0,-0.9482672 0.5037668,-1.7483674 0.5136445,-0.8099779 1.3730114,-1.2841114 0.8593669,-0.4741334 1.8669004,-0.4741334 0.8001002,0 1.5409337,0.3160889 0.7408337,0.316089 1.2643557,0.8791225 L 9.3224486,9.4118327 Q 9.0656263,9.0858659 8.7001484,8.9080659 8.3346706,8.7203881 7.9296816,8.7203881 q -0.4741334,0 -0.8791224,0.2469445 Q 6.6455702,9.2043993 6.3986257,9.6093883 6.161559,10.014377 6.161559,10.488511 q 0,0.484011 0.2370667,0.889 0.2370667,0.404989 0.6420557,0.651933 0.4148668,0.237067 0.8890002,0.237067 0.5037668,0 0.9482669,-0.276578 V 11.328122 H 7.554326 Z"
         id="path1266" />
    </g>
    <g
       aria-label=":"
       id="text3436"
       style="font-weight:900;font-size:7.05556px;line-height:8.71163px;font-family:Metropolis;-inkscape-font-specification:'Metropolis Heavy';text-align:center;text-anchor:middle;stroke-width:0.264583"
       transform="translate(0,-0.52916667)">
      <path
         d="m 10.769115,4.0195002 q -0.352778,0 -0.592667,-0.2398891 -0.2398895,-0.2469446 -0.2398895,-0.592667 0,-0.3245558 0.2398895,-0.5573893 0.239889,-0.239889 0.592667,-0.239889 0.324555,0 0.557389,0.239889 0.239889,0.2398891 0.239889,0.5573893 0,0.3457224 -0.232834,0.592667 -0.232833,0.2398891 -0.564444,0.2398891 z m 0,2.293057 q -0.352778,0 -0.592667,-0.239889 -0.2398895,-0.2469446 -0.2398895,-0.5926671 0,-0.3245557 0.2398895,-0.5573892 0.239889,-0.2398891 0.592667,-0.2398891 0.324555,0 0.557389,0.2398891 0.239889,0.239889 0.239889,0.5573892 0,0.3457225 -0.232834,0.5926671 -0.232833,0.239889 -0.564444,0.239889 z"
         id="path1263" />
    </g>
  </g>
</svg>
