<?xml version="1.0" encoding="UTF-8" standalone="no"?>
<!-- Created with Inkscape (http://www.inkscape.org/) -->

<svg
   width="15mm"
   height="15mm"
   viewBox="0 0 15 15"
   version="1.1"
   id="svg1788"
   xmlns="http://www.w3.org/2000/svg"
   xmlns:svg="http://www.w3.org/2000/svg">
  <defs
     id="defs1785" />
  <g
     id="g195">
    <ellipse
       style="fill:#ff0000;stroke-width:0.00840462;stroke-linecap:square;stroke-dasharray:none"
       id="path3281"
       cx="0.5025"
       cy="0.50250006"
       rx="0.5025"
       ry="0.50250006" />
    <ellipse
       style="fill:#ff0000;stroke-width:0.00840462;stroke-linecap:square;stroke-dasharray:none"
       id="path3281-5"
       cx="14.4975"
       cy="0.50250006"
       rx="0.5025"
       ry="0.50250006" />
    <ellipse
       style="fill:#ff0000;stroke-width:0.00840462;stroke-linecap:square;stroke-dasharray:none"
       id="path3281-0"
       cx="14.4975"
       cy="14.497499"
       rx="0.5025"
       ry="0.50250006" />
    <ellipse
       style="fill:#ff0000;stroke-width:0.00840462;stroke-linecap:square;stroke-dasharray:none"
       id="path3281-9"
       cx="0.5025"
       cy="14.497499"
       rx="0.5025"
       ry="0.50250006" />
    <g
       aria-label="O"
       id="text3356"
       style="font-weight:900;font-size:9.87778px;line-height:12.1963px;font-family:Metropolis;-inkscape-font-specification:'Metropolis Heavy';text-align:center;text-anchor:middle;stroke-width:0.264583"
       transform="translate(-0.0296263)">
      <path
         d="m 7.5296263,14.005 q -0.987778,0 -1.8372671,-0.474133 Q 4.8428702,13.046856 4.3391034,12.236878 3.8353366,11.4269 3.8353366,10.488511 q 0,-0.9383894 0.5037668,-1.7384896 Q 4.8428702,7.9400434 5.6923592,7.46591 6.5418483,6.9818988 7.5296263,6.9818988 q 0.987778,0 1.8372671,0.4840112 0.8494886,0.4741334 1.3532556,1.2841114 0.503767,0.8001002 0.503767,1.7384896 0,0.938389 -0.503767,1.748367 -0.503767,0.809978 -1.3532556,1.293989 Q 8.5174043,14.005 7.5296263,14.005 Z m 0,-1.738489 q 0.4543779,0 0.8494891,-0.237067 0.3951112,-0.246944 0.6321779,-0.651933 0.2370667,-0.414867 0.2370667,-0.889 0,-0.474134 -0.2370667,-0.8791227 Q 8.7742266,9.2043993 8.3791154,8.9673326 7.9840042,8.7203881 7.5296263,8.7203881 q -0.4543779,0 -0.8494891,0.2469445 Q 6.285026,9.2043993 6.0479593,9.6093883 5.8108926,10.014377 5.8108926,10.488511 q 0,0.474133 0.2370667,0.889 0.2370667,0.404989 0.6321779,0.651933 0.3951112,0.237067 0.8494891,0.237067 z"
         id="path1035" />
    </g>
    <g
       aria-label="9"
       id="text3432"
       style="font-weight:900;font-size:7.05556px;line-height:8.71163px;font-family:Metropolis;-inkscape-font-specification:'Metropolis Heavy';text-align:center;text-anchor:middle;stroke-width:0.264583">
      <path
         d="m 4.106838,1.296054 q 1.0795007,0 1.6439455,0.6561671 0.5644448,0.6491115 0.5644448,1.76389 0,0.7761116 -0.289278,1.3687787 Q 5.7366724,5.6705012 5.1933942,5.995057 4.6501161,6.3125572 3.9092823,6.3125572 q -0.881945,0 -1.5592788,-0.4868336 L 2.9708928,4.7956118 q 0.2257779,0.1693334 0.4374447,0.2469446 0.2187224,0.077611 0.4868337,0.077611 0.3810002,0 0.6208893,-0.2116668 Q 4.7559495,4.6897784 4.8476718,4.2805559 4.6289494,4.4216671 4.3537826,4.5063338 4.0786157,4.583945 3.7963933,4.583945 3.3448375,4.583945 2.9638372,4.3934449 2.5898926,4.2029447 2.3711702,3.8501667 2.1524478,3.4973887 2.1524478,3.0246662 q 0,-0.5150559 0.2540002,-0.9101673 Q 2.6675037,1.7193876 3.112004,1.5077208 3.5565043,1.296054 4.106838,1.296054 Z m 0.1270001,2.1942792 q 0.2046112,0 0.3739446,-0.098778 Q 4.7771162,3.2927775 4.875894,3.1163885 4.8265051,2.7565549 4.6712828,2.6083882 4.523116,2.4531658 4.1985603,2.4531658 q -0.2822224,0 -0.4586114,0.1481668 -0.176389,0.1411112 -0.176389,0.3668891 0,0.2398891 0.1975556,0.3810003 0.1975557,0.1411112 0.4727226,0.1411112 z"
         id="path1029" />
    </g>
    <g
       aria-label="("
       id="text3436"
       style="font-weight:900;font-size:5.64444px;line-height:6.96931px;font-family:Metropolis;-inkscape-font-specification:'Metropolis Heavy';text-align:center;text-anchor:middle;stroke-width:0.264583">
      <path
         d="M 11.177627,6.3125564 Q 10.556739,5.9005123 10.206784,5.2626906 9.8568285,4.6192244 9.8568285,3.8572249 q 0,-0.7619994 0.3443105,-1.3998211 0.349956,-0.6434662 0.976488,-1.0555103 l 0.547511,0.5757329 q -0.423333,0.4346219 -0.615244,0.8805326 -0.186266,0.4402664 -0.186266,0.9990659 0,0.5587996 0.186266,0.999066 0.191911,0.4402663 0.615244,0.8748882 z"
         id="path1032" />
    </g>
  </g>
</svg>
