<?xml version="1.0" encoding="UTF-8" standalone="no"?>
<!-- Created with Inkscape (http://www.inkscape.org/) -->

<svg
   width="15mm"
   height="15mm"
   viewBox="0 0 15 15"
   version="1.1"
   id="svg1788"
   xmlns="http://www.w3.org/2000/svg"
   xmlns:svg="http://www.w3.org/2000/svg">
  <defs
     id="defs1785" />
  <g
     id="layer1">
    <g
       aria-label="?"
       id="text3436"
       style="font-weight:900;font-size:7.05556px;line-height:8.71163px;font-family:Metropolis;-inkscape-font-specification:'Metropolis Heavy';text-align:center;text-anchor:middle;stroke-width:0.264583">
      <path
         d="m 10.095307,3.3068886 q 0.402167,0 0.656167,-0.1199445 0.254,-0.1199445 0.254,-0.3104447 0,-0.1552223 -0.155222,-0.2540001 -0.148167,-0.1058334 -0.388056,-0.1058334 -0.169333,0 -0.359834,0.077611 -0.1904997,0.077611 -0.3245554,0.1975557 L 9.0299173,2.0227767 Q 9.3615286,1.6841098 9.7919177,1.4936097 10.229362,1.296054 10.730307,1.296054 q 0.479778,0 0.853723,0.1834445 0.381,0.1834446 0.592667,0.5150559 0.211667,0.3316113 0.211667,0.7478894 0,0.4797781 -0.3175,0.8678339 -0.317501,0.3810002 -0.818445,0.5009448 v 0.2540001 h -1.157112 z m 0.578556,3.0056686 q -0.352778,0 -0.592667,-0.239889 -0.2398893,-0.2469446 -0.2398893,-0.5926671 0,-0.3245557 0.2398893,-0.5573892 0.239889,-0.2398891 0.592667,-0.2398891 0.324556,0 0.557389,0.2398891 0.239889,0.239889 0.239889,0.5573892 0,0.3457225 -0.232833,0.5926671 -0.232834,0.239889 -0.564445,0.239889 z"
         id="path571" />
    </g>
    <ellipse
       style="fill:#ff0000;stroke-width:0.00840462;stroke-linecap:square;stroke-dasharray:none"
       id="path3281"
       cx="0.5025"
       cy="0.50250006"
       rx="0.5025"
       ry="0.50250006" />
    <ellipse
       style="fill:#ff0000;stroke-width:0.00840462;stroke-linecap:square;stroke-dasharray:none"
       id="path3281-5"
       cx="14.4975"
       cy="0.50250006"
       rx="0.5025"
       ry="0.50250006" />
    <ellipse
       style="fill:#ff0000;stroke-width:0.00840462;stroke-linecap:square;stroke-dasharray:none"
       id="path3281-0"
       cx="14.4975"
       cy="14.497499"
       rx="0.5025"
       ry="0.50250006" />
    <ellipse
       style="fill:#ff0000;stroke-width:0.00840462;stroke-linecap:square;stroke-dasharray:none"
       id="path3281-9"
       cx="0.5025"
       cy="14.497499"
       rx="0.5025"
       ry="0.50250006" />
    <g
       aria-label="N"
       id="text3356"
       style="font-weight:900;font-size:9.87778px;line-height:12.1963px;font-family:Metropolis;-inkscape-font-specification:'Metropolis Heavy';text-align:center;text-anchor:middle;stroke-width:0.264583">
      <path
         d="m 4.260088,7.2189653 h 1.9162893 l 2.647245,3.6350227 V 7.2189653 H 10.739912 V 14.005 H 8.8236223 L 6.1763773,10.369977 V 14.005 H 4.260088 Z"
         id="path574" />
    </g>
  </g>
</svg>
