<?xml version="1.0" encoding="UTF-8" standalone="no"?>
<!-- Created with Inkscape (http://www.inkscape.org/) -->

<svg
   width="15mm"
   height="15mm"
   viewBox="0 0 15 15"
   version="1.1"
   id="svg1788"
   xmlns="http://www.w3.org/2000/svg"
   xmlns:svg="http://www.w3.org/2000/svg">
  <defs
     id="defs1785" />
  <g
     id="g195">
    <ellipse
       style="fill:#ff0000;stroke-width:0.00840462;stroke-linecap:square;stroke-dasharray:none"
       id="path3281"
       cx="0.5025"
       cy="0.50250006"
       rx="0.5025"
       ry="0.50250006" />
    <ellipse
       style="fill:#ff0000;stroke-width:0.00840462;stroke-linecap:square;stroke-dasharray:none"
       id="path3281-5"
       cx="14.4975"
       cy="0.50250006"
       rx="0.5025"
       ry="0.50250006" />
    <ellipse
       style="fill:#ff0000;stroke-width:0.00840462;stroke-linecap:square;stroke-dasharray:none"
       id="path3281-0"
       cx="14.4975"
       cy="14.497499"
       rx="0.5025"
       ry="0.50250006" />
    <ellipse
       style="fill:#ff0000;stroke-width:0.00840462;stroke-linecap:square;stroke-dasharray:none"
       id="path3281-9"
       cx="0.5025"
       cy="14.497499"
       rx="0.5025"
       ry="0.50250006" />
    <g
       aria-label="I"
       id="text3356"
       style="font-weight:900;font-size:9.87778px;line-height:12.1963px;font-family:Metropolis;-inkscape-font-specification:'Metropolis Heavy';text-align:center;text-anchor:middle;stroke-width:0.264583"
       transform="translate(-0.02963235)">
      <path
         d="M 6.5714877,7.2189653 H 8.487777 V 14.005 H 6.5714877 Z"
         id="path989" />
    </g>
    <g
       aria-label="8"
       id="text3432"
       style="font-weight:900;font-size:7.05556px;line-height:8.71163px;font-family:Metropolis;-inkscape-font-specification:'Metropolis Heavy';text-align:center;text-anchor:middle;stroke-width:0.264583">
      <path
         d="m 4.251475,6.3125572 q -0.5715003,0 -1.0442229,-0.1622779 Q 2.7415852,5.9880014 2.4664183,5.6705012 2.1912515,5.353001 2.1912515,4.9085008 q 0,-0.402167 0.2257779,-0.7055561 0.2328335,-0.303389 0.642056,-0.479778 -0.7408338,-0.3527781 -0.7408338,-1.0865563 0,-0.4233336 0.2610557,-0.7267227 Q 2.8474186,1.6064986 3.2848633,1.4512763 3.7293636,1.296054 4.251475,1.296054 q 0.529167,0 0.9666118,0.1622779 0.4445002,0.1552223 0.705556,0.4586114 0.2681113,0.303389 0.2681113,0.7126115 0,0.7337783 -0.7478894,1.0936119 0.4233336,0.1834445 0.6491115,0.4938892 0.2257779,0.303389 0.2257779,0.6914449 0,0.4445002 -0.2822224,0.7620004 Q 5.7613649,5.9880014 5.2886424,6.1502793 4.8229754,6.3125572 4.251475,6.3125572 Z m 0,-3.048002 q 0.2469446,-0.014111 0.4162781,-0.1411112 0.176389,-0.127 0.176389,-0.2963335 0,-0.176389 -0.1622779,-0.2892779 Q 4.5195863,2.417888 4.251475,2.417888 q -0.2681113,0 -0.4303891,0.1199446 -0.1552224,0.1128889 -0.1552224,0.2892779 0,0.176389 0.1693335,0.3033891 0.1693334,0.1199445 0.416278,0.1340556 z m 0,1.9191124 q 0.3033891,0 0.4938892,-0.1199445 0.1905002,-0.1199445 0.1905002,-0.3175002 0,-0.176389 -0.2046113,-0.2963336 -0.1975557,-0.127 -0.4797781,-0.1411112 -0.2822224,0.014111 -0.4797781,0.1411112 -0.1975556,0.1199446 -0.1975556,0.2963336 0,0.1975557 0.1834445,0.3175002 0.1834446,0.1199445 0.4938892,0.1199445 z"
         id="path983" />
    </g>
    <g
       aria-label="*"
       id="text3436"
       style="font-weight:900;font-size:12.7px;line-height:15.6809px;font-family:Metropolis;-inkscape-font-specification:'Metropolis Heavy';text-align:center;text-anchor:middle;stroke-width:0.264583">
      <path
         d="m 10.76418,6.2021624 q -0.2413,0 -0.4191,-0.1651 -0.1778,-0.1651 -0.1778,-0.381 0,-0.2032 0.0762,-0.4826 0.0762,-0.2794 0.0889,-0.3429 0.1016,-0.3048 0.1397,-0.5461 -0.1016,0.0762 -0.4191,0.4191 -0.2667002,0.2921 -0.4699002,0.4572 -0.1905,0.1524 -0.381,0.1524 -0.1524,0 -0.2921,-0.0762 -0.1397,-0.0889 -0.2286,-0.2413 -0.0889,-0.1778 -0.0889,-0.3175 0,-0.1397 0.0635,-0.2667 0.0762,-0.1397 0.2032,-0.2032 0.254,-0.1397 0.7747,-0.254 0.3175,-0.0635 0.5588002,-0.1524 -0.2286002,-0.0889 -0.5461002,-0.1524 -0.5842,-0.1524 -0.7874,-0.2667 -0.127,-0.0635 -0.2032,-0.1905 -0.0635,-0.1397 -0.0635,-0.2794 0,-0.1397 0.0889,-0.3175 0.0889,-0.1524 0.2286,-0.2286 0.1397,-0.0889 0.2921,-0.0889 0.1905,0 0.381,0.1651 0.2032,0.1651 0.4826002,0.4699 0.2794,0.3048 0.4064,0.4064 -0.0127,-0.1143 -0.0635,-0.2794 -0.0508,-0.1778 -0.0762,-0.2794 -0.1778,-0.5588 -0.1778,-0.8128 0,-0.2158999 0.1778,-0.3809999 0.1778,-0.1651 0.4191,-0.1651 0.2413,0 0.4191,0.1651 0.1778,0.1651 0.1778,0.3809999 0,0.254 -0.1778,0.8128 -0.127,0.3683 -0.1524,0.5588 0.1397,-0.1016 0.4191,-0.4064 0.3048,-0.3175 0.4826,-0.4699 0.1905,-0.1524 0.381,-0.1524 0.1524,0 0.2921,0.0889 0.1397,0.0762 0.2286,0.2286 0.0889,0.1778 0.0889,0.3175 0,0.1397 -0.0762,0.2794 -0.0635,0.127 -0.1905,0.1905 -0.2286,0.127 -0.7747,0.254 -0.3429,0.0635 -0.5715,0.1524 0.2413,0.0889 0.5588,0.1524 0.5842,0.1524 0.7874,0.2667 0.127,0.0635 0.1905,0.2032 0.0762,0.127 0.0762,0.2667 0,0.1397 -0.0889,0.3175 -0.0889,0.1524 -0.2286,0.2413 -0.1397,0.0762 -0.2921,0.0762 -0.1905,0 -0.3937,-0.1651 -0.1905,-0.1651 -0.4699,-0.4699 -0.2794,-0.3048 -0.4064,-0.4064 0.0254,0.1905 0.1524,0.5588 0.1778,0.5588 0.1778,0.8128 0,0.2159 -0.1778,0.381 -0.1778,0.1651 -0.4191,0.1651 z"
         id="path986" />
    </g>
  </g>
</svg>
