<?xml version="1.0" encoding="UTF-8" standalone="no"?>
<!-- Created with Inkscape (http://www.inkscape.org/) -->

<svg
   width="15mm"
   height="15mm"
   viewBox="0 0 15 15"
   version="1.1"
   id="svg1788"
   xmlns="http://www.w3.org/2000/svg"
   xmlns:svg="http://www.w3.org/2000/svg">
  <defs
     id="defs1785" />
  <g
     id="layer1">
    <ellipse
       style="fill:#ff0000;stroke-width:0.00840462;stroke-linecap:square;stroke-dasharray:none"
       id="path3281"
       cx="0.5025"
       cy="0.50250006"
       rx="0.5025"
       ry="0.50250006" />
    <ellipse
       style="fill:#ff0000;stroke-width:0.00840462;stroke-linecap:square;stroke-dasharray:none"
       id="path3281-5"
       cx="14.4975"
       cy="0.50250006"
       rx="0.5025"
       ry="0.50250006" />
    <ellipse
       style="fill:#ff0000;stroke-width:0.00840462;stroke-linecap:square;stroke-dasharray:none"
       id="path3281-0"
       cx="14.4975"
       cy="14.497499"
       rx="0.5025"
       ry="0.50250006" />
    <ellipse
       style="fill:#ff0000;stroke-width:0.00840462;stroke-linecap:square;stroke-dasharray:none"
       id="path3281-9"
       cx="0.5025"
       cy="14.497499"
       rx="0.5025"
       ry="0.50250006" />
    <g
       aria-label="A"
       id="text3356"
       style="font-weight:900;font-size:9.87778px;line-height:12.1963px;font-family:Metropolis;-inkscape-font-specification:'Metropolis Heavy';text-align:center;text-anchor:middle;stroke-width:0.264583"
       transform="translate(-0.0296323)">
      <path
         d="M 9.0557494,14.005 8.7100271,13.096244 H 6.3492377 L 6.0035154,14.005 H 3.8402816 L 6.4480155,7.2189653 H 8.6112493 L 11.218983,14.005 Z M 6.8925156,11.683722 H 8.1667492 L 7.5345713,10.034133 Z"
         id="path6862" />
    </g>
    <g
       aria-label="@"
       id="text3436"
       style="font-weight:900;font-size:6.0508px;font-family:Metropolis;-inkscape-font-specification:'Metropolis Heavy';text-align:center;text-anchor:middle;stroke:#000000;stroke-width:0.05;stroke-linecap:round;stroke-linejoin:round">
      <g
         id="path6853">
        <path
           style="color:#000000;-inkscape-font-specification:'Metropolis Heavy';fill:#000000;stroke:none;stroke-linecap:butt;stroke-linejoin:miter;-inkscape-stroke:none"
           d="m 10.661213,6.310089 q -0.653487,0 -1.1799063,-0.30254 Q 8.9548871,5.7050091 8.6523471,5.1846403 8.3558579,4.6642715 8.3558579,4.0349883 q 0,-0.6716388 0.3448956,-1.2525156 0.3448956,-0.5808768 0.9257724,-0.9197215 0.5869271,-0.3448956 1.2706681,-0.3448956 0.647435,0 1.161753,0.2843876 0.514318,0.2843875 0.804757,0.7624007 0.290438,0.4719624 0.290438,1.0225852 0,0.514318 -0.199676,0.877366 -0.193626,0.3569972 -0.496166,0.5385212 -0.30254,0.1754732 -0.623232,0.1754732 -0.592979,0 -0.786604,-0.45381 -0.163372,0.211778 -0.381201,0.3267432 -0.211778,0.1149652 -0.45381,0.1149652 -0.4659111,0 -0.7502987,-0.3146416 -0.2783368,-0.3146416 -0.2783368,-0.816858 0,-0.3993528 0.181524,-0.7442484 0.1875748,-0.3509464 0.4901148,-0.5566736 0.3085907,-0.2057272 0.6534867,-0.2057272 0.260184,0 0.45381,0.1089144 0.199676,0.1028636 0.320692,0.2843876 l 0.06656,-0.3146416 0.943925,0.07261 -0.181524,0.9136708 q -0.06656,0.3206924 -0.09681,0.4719624 -0.0242,0.1452192 -0.0242,0.2662352 0,0.1331176 0.07261,0.211778 0.07866,0.07866 0.211778,0.07866 0.163372,0 0.296489,-0.121016 0.139169,-0.121016 0.217829,-0.3509464 0.08471,-0.2359812 0.08471,-0.5627244 0,-0.5082672 -0.254133,-0.9197216 -0.248083,-0.4175052 -0.701893,-0.6534864 -0.45381,-0.2420319 -1.034687,-0.2420319 -0.623232,0 -1.1436009,0.3085907 -0.5203688,0.30254 -0.8229088,0.8229088 -0.30254,0.514318 -0.30254,1.1254488 0,0.5687752 0.2601844,1.0346868 0.2662352,0.4598608 0.7381976,0.726096 0.4719627,0.2722859 1.0649407,0.2722859 0.356997,0 0.665588,-0.096813 0.308591,-0.090762 0.617182,-0.2722859 l 0.133117,0.1996764 Q 11.429664,6.310089 10.661213,6.310089 Z m -0.09076,-1.9241543 q 0.223879,0 0.3812,-0.1936256 0.163372,-0.1936256 0.163372,-0.4780132 0,-0.181524 -0.102864,-0.2904384 -0.09681,-0.1149652 -0.266235,-0.1149652 -0.260185,0 -0.423556,0.1936256 -0.163372,0.1936256 -0.163372,0.45381 0,0.1996764 0.108915,0.3146416 0.114965,0.1149652 0.30254,0.1149652 z"
           id="path6858" />
        <path
           style="color:#000000;-inkscape-font-specification:'Metropolis Heavy';fill:#000000;stroke:none;stroke-linecap:butt;stroke-linejoin:miter;-inkscape-stroke:none"
           d="m 10.896484,1.4921875 c -0.46003,0 -0.888262,0.1175309 -1.2832027,0.3496094 C 9.2225199,2.0697409 8.9116737,2.3788176 8.6796875,2.7695313 8.4475978,3.1604191 8.3300781,3.5831182 8.3300781,4.0351562 c 0,0.423448 0.1009761,0.811431 0.3007813,1.1621094 0.2038017,0.3505391 0.4833697,0.6282837 0.8378906,0.8320313 0.3548207,0.20392 0.753844,0.3066406 1.193359,0.3066406 0.516828,0 0.999868,-0.141237 1.447266,-0.421875 a 0.0250025,0.0250025 0 0 0 0.0059,-0.035156 L 11.982422,5.6796875 a 0.0250025,0.0250025 0 0 0 -0.0332,-0.00781 c -0.204158,0.1200926 -0.407765,0.2096598 -0.611328,0.2695312 -0.2031,0.063718 -0.422466,0.095703 -0.658203,0.095703 -0.391492,0 -0.7420189,-0.090272 -1.0527349,-0.2695313 C 9.3159246,5.5921261 9.0737662,5.3536217 8.8984375,5.0507812 8.7270929,4.7439548 8.640625,4.4046679 8.640625,4.0292969 8.640625,3.6260022 8.739954,3.2551641 8.9394531,2.9160156 9.139074,2.5726677 9.4105583,2.3011834 9.7539063,2.1015625 10.097052,1.8980691 10.473404,1.796875 10.884766,1.796875 c 0.383778,0 0.724805,0.079011 1.023437,0.2382813 a 0.0250025,0.0250025 0 0 0 0,0.00195 c 0.29884,0.1553967 0.528381,0.3682184 0.691406,0.6425781 0.167004,0.270387 0.251953,0.5735253 0.251954,0.9082031 -1e-6,0.2156681 -0.02875,0.3988671 -0.08399,0.5527344 a 0.0250025,0.0250025 0 0 0 0,0.00195 c -0.05141,0.1502854 -0.122314,0.2627806 -0.210937,0.3398438 -0.08498,0.077253 -0.176556,0.1152344 -0.279297,0.1152343 -0.08308,0 -0.146055,-0.02564 -0.19336,-0.072266 -0.04364,-0.047275 -0.06641,-0.1091598 -0.06641,-0.1933594 0,-0.079011 0.0075,-0.1660167 0.02344,-0.2617187 0.02014,-0.1007203 0.05329,-0.2588895 0.09766,-0.4726562 l 0.181641,-0.9140625 a 0.0250025,0.0250025 0 0 0 -0.02344,-0.029297 l -0.943359,-0.072266 a 0.0250025,0.0250025 0 0 0 -0.02734,0.019531 L 11.267578,2.875 C 11.188766,2.7702891 11.097156,2.677598 10.976563,2.6152344 h -0.002 C 10.841704,2.5408738 10.686009,2.5039063 10.509766,2.5039063 10.274864,2.5039062 10.0511,2.5733548 9.8417969,2.7128906 9.6366243,2.852408 9.4704764,3.042196 9.34375,3.2792969 9.2208819,3.5127462 9.1601563,3.7651334 9.1601563,4.0351562 c 0,0.3394291 0.095225,0.6192795 0.2851562,0.8339844 0.1941455,0.2147993 0.4513433,0.3222656 0.7675785,0.3222656 0.165312,0 0.322102,-0.038639 0.466797,-0.1171875 0.143322,-0.075642 0.266742,-0.185794 0.375,-0.3222656 0.137855,0.2889005 0.394209,0.4511719 0.78125,0.4511719 0.218354,0 0.429756,-0.058829 0.634765,-0.1777344 0.205876,-0.1235253 0.375021,-0.3075944 0.50586,-0.5488281 0.135519,-0.2463997 0.203125,-0.5425583 0.203125,-0.8886719 0,-0.3714771 -0.09902,-0.7187723 -0.294922,-1.0371093 C 12.688882,2.2283898 12.416638,1.9727474 12.070313,1.78125 11.723547,1.5895089 11.331768,1.4921875 10.896484,1.4921875 Z m 0,0.050781 c 0.427963,0 0.8114,0.093808 1.150391,0.28125 0.339431,0.1876856 0.603554,0.4389475 0.794922,0.7539063 0.191351,0.3109455 0.287109,0.6470797 0.287109,1.0097656 0,0.3396431 -0.06655,0.6275706 -0.197265,0.8652344 -0.127329,0.2347621 -0.288818,0.4107904 -0.486328,0.5292969 -0.198377,0.1150586 -0.400141,0.171875 -0.609375,0.171875 -0.388942,0 -0.638204,-0.1453864 -0.763672,-0.4394532 a 0.0250025,0.0250025 0 0 0 -0.04297,-0.00586 C 10.922328,4.8476471 10.798147,4.954407 10.65625,5.0292969 10.518574,5.1040351 10.370287,5.140625 10.212891,5.140625 9.9079112,5.140625 9.6674595,5.0406599 9.4824219,4.8359375 9.3012378,4.6311207 9.2089844,4.3653484 9.2089844,4.0351562 c 0,-0.262447 0.060524,-0.5060108 0.1796875,-0.7324218 C 9.512045,3.0719072 9.6728801,2.8886916 9.8710938,2.7539063 10.073244,2.6191394 10.284806,2.5527344 10.509766,2.5527344 c 0.169967,0 0.316492,0.035205 0.441406,0.1054687 a 0.0250025,0.0250025 0 0 0 0.002,0.00195 c 0.129623,0.066775 0.232181,0.1578416 0.310547,0.2753906 a 0.0250025,0.0250025 0 0 0 0.04492,-0.00781 l 0.0625,-0.2949219 0.892578,0.070312 -0.173828,0.8847656 c -0.04438,0.2138227 -0.07747,0.3716835 -0.09766,0.4726563 -0.01632,0.097923 -0.02539,0.1891407 -0.02539,0.2714843 0,0.09329 0.0269,0.1709107 0.08008,0.2285157 0.05743,0.057426 0.136799,0.085937 0.230469,0.085937 0.115087,0 0.219988,-0.042852 0.3125,-0.1269532 0.09694,-0.084291 0.171142,-0.2050399 0.224609,-0.3613281 0.05771,-0.160774 0.08594,-0.3503234 0.08594,-0.5703125 0,-0.3430111 -0.08597,-0.6553754 -0.257813,-0.9335937 C 12.474827,2.3719836 12.23788,2.1514321 11.931641,1.9921875 11.625193,1.8287488 11.275489,1.7460937 10.884766,1.7460937 10.465152,1.7460938 10.079194,1.8506333 9.7285156,2.0585938 9.3780392,2.2623591 9.1002497,2.5401486 8.8964844,2.890625 8.6925972,3.2372332 8.5917969,3.6177513 8.5917969,4.0292969 c 0,0.3829951 0.086151,0.7324866 0.2617187,1.046875 a 0.0250025,0.0250025 0 0 0 0.00195,0 c 0.1796512,0.3103067 0.4278396,0.554847 0.7460937,0.734375 0.318567,0.1837885 0.6789805,0.2773437 1.0781255,0.2773437 0.240257,0 0.46352,-0.034243 0.671875,-0.099609 0.200681,-0.059024 0.401434,-0.1479909 0.601562,-0.2636718 l 0.103516,0.1542968 c -0.433318,0.2661969 -0.895878,0.40625 -1.394532,0.40625 C 10.23031,6.2851563 9.8412116,6.1857943 9.4941406,5.9863281 9.1467695,5.7866896 8.8734126,5.5151603 8.6738281,5.171875 8.4783147,4.828729 8.3808594,4.4507517 8.3808594,4.0351562 c 0,-0.4434794 0.1140262,-0.8566206 0.3417969,-1.2402343 C 8.9505303,2.4111339 9.2549316,2.1086141 9.6386719,1.8847656 10.0263,1.6569838 10.444861,1.5429687 10.896484,1.5429687 Z m -0.15039,1.7402344 c -0.179658,0 -0.330228,0.069042 -0.44336,0.203125 -0.112473,0.1333018 -0.167968,0.2920145 -0.167968,0.4707032 0,0.1376629 0.03765,0.2501419 0.115234,0.3320312 0.08145,0.08145 0.190155,0.1210938 0.320313,0.1210937 0.156459,0 0.29185,-0.067584 0.40039,-0.2011718 0.112805,-0.1336942 0.169922,-0.2997619 0.169922,-0.4941406 0,-0.1250312 -0.03687,-0.2291304 -0.109375,-0.3066407 -0.06917,-0.08214 -0.166552,-0.125 -0.285156,-0.125 z m 0,0.050781 c 0.107295,0 0.186182,0.034322 0.246094,0.1054687 a 0.0250025,0.0250025 0 0 0 0.002,0.00195 c 0.06381,0.067569 0.0957,0.1571438 0.0957,0.2734375 0,0.1848043 -0.05318,0.3364644 -0.158203,0.4609374 -0.101221,0.1245792 -0.219283,0.1855469 -0.361328,0.1855469 -0.119943,0 -0.213321,-0.035586 -0.285157,-0.1074219 -0.06764,-0.071397 -0.101562,-0.168303 -0.101562,-0.2968749 0,-0.1682236 0.05285,-0.3126346 0.158203,-0.4375 0.104696,-0.1240843 0.237042,-0.1855469 0.404297,-0.1855469 z"
           id="path6860" />
      </g>
    </g>
  </g>
</svg>
