<?xml version="1.0" encoding="UTF-8" standalone="no"?>
<!-- Created with Inkscape (http://www.inkscape.org/) -->

<svg
   width="15mm"
   height="15mm"
   viewBox="0 0 15 15"
   version="1.1"
   id="svg1788"
   xmlns="http://www.w3.org/2000/svg"
   xmlns:svg="http://www.w3.org/2000/svg">
  <defs
     id="defs1785" />
  <g
     id="layer1">
    <g
       aria-label="'"
       id="text3436"
       style="font-weight:900;font-size:7.05556px;line-height:8.71163px;font-family:Metropolis;-inkscape-font-specification:'Metropolis Heavy';text-align:center;text-anchor:middle;stroke-width:0.264583">
      <path
         d="M 10.511581,3.702 Q 10.30697,3.1446107 10.187025,2.7353882 10.074136,2.3191102 10.074136,2.0368878 q 0,-0.2822224 0.197556,-0.4868337 0.204611,-0.2116668 0.479778,-0.2116668 0.275167,0 0.472723,0.2116668 0.204611,0.2046113 0.204611,0.4868337 0,0.2822224 -0.119944,0.6985004 Q 11.195971,3.1446107 10.991359,3.702 Z"
         id="path960" />
    </g>
    <ellipse
       style="fill:#ff0000;stroke-width:0.00840462;stroke-linecap:square;stroke-dasharray:none"
       id="path3281"
       cx="0.5025"
       cy="0.50250006"
       rx="0.5025"
       ry="0.50250006" />
    <ellipse
       style="fill:#ff0000;stroke-width:0.00840462;stroke-linecap:square;stroke-dasharray:none"
       id="path3281-5"
       cx="14.4975"
       cy="0.50250006"
       rx="0.5025"
       ry="0.50250006" />
    <ellipse
       style="fill:#ff0000;stroke-width:0.00840462;stroke-linecap:square;stroke-dasharray:none"
       id="path3281-0"
       cx="14.4975"
       cy="14.497499"
       rx="0.5025"
       ry="0.50250006" />
    <ellipse
       style="fill:#ff0000;stroke-width:0.00840462;stroke-linecap:square;stroke-dasharray:none"
       id="path3281-9"
       cx="0.5025"
       cy="14.497499"
       rx="0.5025"
       ry="0.50250006" />
    <g
       aria-label="J"
       id="text3356"
       style="font-weight:900;font-size:9.87778px;line-height:12.1963px;font-family:Metropolis;-inkscape-font-specification:'Metropolis Heavy';text-align:center;text-anchor:middle;stroke-width:0.264583">
      <path
         d="m 7.4703665,13.994999 q -0.6914446,0 -1.3631336,-0.316089 Q 5.4355438,13.362821 5.070066,12.868932 l 1.2347225,-1.205089 q 0.1382889,0.256822 0.3951112,0.424745 0.2568222,0.167922 0.5136445,0.167922 0.3457223,0 0.5729113,-0.217311 0.2271889,-0.227189 0.2271889,-0.572912 V 7.090431 h 1.9162893 v 4.573412 q 0,0.671689 -0.3160889,1.205089 -0.316089,0.5334 -0.8791225,0.829734 -0.5531556,0.296333 -1.2643558,0.296333 z"
         id="path963" />
    </g>
  </g>
</svg>
