<?xml version="1.0" encoding="UTF-8" standalone="no"?>
<!-- Created with Inkscape (http://www.inkscape.org/) -->

<svg
   width="15mm"
   height="15mm"
   viewBox="0 0 15 15"
   version="1.1"
   id="svg1788"
   xmlns="http://www.w3.org/2000/svg"
   xmlns:svg="http://www.w3.org/2000/svg">
  <defs
     id="defs1785" />
  <g
     id="g228">
    <ellipse
       style="fill:#ff0000;stroke-width:0.00840462;stroke-linecap:square;stroke-dasharray:none"
       id="path3281"
       cx="0.5025"
       cy="0.50250006"
       rx="0.5025"
       ry="0.50250006" />
    <ellipse
       style="fill:#ff0000;stroke-width:0.00840462;stroke-linecap:square;stroke-dasharray:none"
       id="path3281-5"
       cx="14.4975"
       cy="0.50250006"
       rx="0.5025"
       ry="0.50250006" />
    <ellipse
       style="fill:#ff0000;stroke-width:0.00840462;stroke-linecap:square;stroke-dasharray:none"
       id="path3281-0"
       cx="14.4975"
       cy="14.497499"
       rx="0.5025"
       ry="0.50250006" />
    <ellipse
       style="fill:#ff0000;stroke-width:0.00840462;stroke-linecap:square;stroke-dasharray:none"
       id="path3281-9"
       cx="0.5025"
       cy="14.497499"
       rx="0.5025"
       ry="0.50250006" />
    <g
       aria-label="T"
       id="text3356"
       style="font-weight:900;font-size:9.87778px;line-height:12.1963px;font-family:Metropolis;-inkscape-font-specification:'Metropolis Heavy';text-align:center;text-anchor:middle;stroke-width:0.264583"
       transform="translate(-0.029627)">
      <path
         d="M 6.5714823,8.9278212 H 4.566293 V 7.2189653 h 5.926668 V 8.9278212 H 8.4877717 V 14.005 H 6.5714823 Z"
         id="path749" />
    </g>
    <g
       aria-label="5"
       id="text3432"
       style="font-weight:900;font-size:7.05556px;line-height:8.71163px;font-family:Metropolis;-inkscape-font-specification:'Metropolis Heavy';text-align:center;text-anchor:middle;stroke-width:0.264583"
       transform="translate(0,-0.09172225)">
      <path
         d="m 4.1915045,6.4042795 q -1.1994452,0 -1.9826124,-0.7267227 L 2.9850037,4.7180006 q 0.2822224,0.2398891 0.5926671,0.3739447 0.3104446,0.1340557 0.6138337,0.1340557 0.3316113,0 0.5150559,-0.1481668 0.1905001,-0.1481668 0.1905001,-0.3668891 0,-0.2257779 -0.1834446,-0.352778 -0.1834445,-0.1340557 -0.5009447,-0.1340557 -0.4868337,0 -0.8466672,0.2822224 L 2.4699478,4.1676669 2.5405034,1.4653874 H 5.9906723 V 2.6859993 H 3.7893376 l -0.021167,0.6914449 q 0.3739447,-0.2681113 0.8890006,-0.2681113 0.4303891,0 0.7972782,0.1834446 0.3668892,0.1834446 0.5856115,0.5362226 0.2187224,0.352778 0.2187224,0.8325561 0,0.529167 -0.2540002,0.9242783 Q 5.7578388,5.9809459 5.2851163,6.1926127 4.8194493,6.4042795 4.1915045,6.4042795 Z"
         id="path746" />
    </g>
    <g
       aria-label="%"
       id="text3436"
       style="font-weight:900;font-size:7.05556px;line-height:8.71163px;font-family:Metropolis;-inkscape-font-specification:'Metropolis Heavy';text-align:center;text-anchor:middle;stroke-width:0.264583"
       transform="translate(0,0.00705555)">
      <path
         d="M 9.1498627,3.8431112 C 8.90527,3.8431112 8.6865476,3.7890186 8.4936956,3.6808333 8.3008436,3.5679443 8.150325,3.4174257 8.0421398,3.2292774 7.9386582,3.0364255 7.8869174,2.8224068 7.8869174,2.5872215 c 0,-0.2304817 0.051741,-0.4397966 0.1552224,-0.6279449 C 8.1456213,1.7664247 8.2937881,1.6135542 8.48664,1.5006652 8.679492,1.3877763 8.9005662,1.3313318 9.1498627,1.3313318 c 0.2540001,0 0.4750743,0.056445 0.6632226,0.1693334 0.1928517,0.112889 0.3410187,0.2657595 0.4445007,0.4586114 0.108185,0.1881483 0.162278,0.3974632 0.162278,0.6279449 0,0.2351853 -0.05409,0.449204 -0.162278,0.6420559 C 10.149401,3.4174257 9.9988819,3.5679443 9.8060298,3.6808333 9.6131778,3.7890186 9.3944554,3.8431112 9.1498627,3.8431112 Z M 11.957976,1.3807207 h 1.001889 L 9.5520296,6.2278905 H 8.5501401 Z m 0.395111,4.924781 c -0.249297,0 -0.470371,-0.056444 -0.663223,-0.1693335 C 11.497012,6.0232793 11.346493,5.8727607 11.238308,5.6846124 11.134827,5.4917604 11.083086,5.2800936 11.083086,5.049612 c 0,-0.2351854 0.05409,-0.4492041 0.162278,-0.642056 0.108185,-0.192852 0.258704,-0.3433706 0.451556,-0.4515559 0.192852,-0.1128889 0.411574,-0.1693334 0.656167,-0.1693334 0.249297,0 0.470371,0.056445 0.663223,0.1693334 0.192852,0.112889 0.341019,0.2657595 0.4445,0.4586114 0.103481,0.1881483 0.155222,0.3998151 0.155222,0.6350005 0,0.2351853 -0.05409,0.449204 -0.162278,0.6420559 -0.103481,0.1881483 -0.251648,0.3386669 -0.4445,0.4515559 -0.192852,0.1081853 -0.411574,0.1622779 -0.656167,0.1622779 z"
         id="path694" />
    </g>
  </g>
</svg>
