<?xml version="1.0" encoding="UTF-8" standalone="no"?>
<!-- Created with Inkscape (http://www.inkscape.org/) -->

<svg
   width="15mm"
   height="15mm"
   viewBox="0 0 15 15"
   version="1.1"
   id="svg1788"
   xmlns="http://www.w3.org/2000/svg"
   xmlns:svg="http://www.w3.org/2000/svg">
  <defs
     id="defs1785" />
  <g
     id="layer1">
    <ellipse
       style="fill:#ff0000;stroke-width:0.00840462;stroke-linecap:square;stroke-dasharray:none"
       id="path3281"
       cx="0.5025"
       cy="0.50250006"
       rx="0.5025"
       ry="0.50250006" />
    <ellipse
       style="fill:#ff0000;stroke-width:0.00840462;stroke-linecap:square;stroke-dasharray:none"
       id="path3281-5"
       cx="14.4975"
       cy="0.50250006"
       rx="0.5025"
       ry="0.50250006" />
    <ellipse
       style="fill:#ff0000;stroke-width:0.00840462;stroke-linecap:square;stroke-dasharray:none"
       id="path3281-0"
       cx="14.4975"
       cy="14.497499"
       rx="0.5025"
       ry="0.50250006" />
    <ellipse
       style="fill:#ff0000;stroke-width:0.00840462;stroke-linecap:square;stroke-dasharray:none"
       id="path3281-9"
       cx="0.5025"
       cy="14.497499"
       rx="0.5025"
       ry="0.50250006" />
    <g
       aria-label="V"
       id="text3356"
       style="font-weight:900;font-size:9.87778px;line-height:12.1963px;font-family:Metropolis;-inkscape-font-specification:'Metropolis Heavy';text-align:center;text-anchor:middle;stroke-width:0.264583">
      <path
         d="M 9.0261168,7.2189653 H 11.189351 L 8.5816167,14.005 H 6.4183829 L 3.810649,7.2189653 h 2.1632338 l 1.5310559,3.9708677 z"
         id="path615" />
    </g>
    <g
       aria-label=","
       id="text3436"
       style="font-weight:900;font-size:7.05556px;line-height:8.71163px;font-family:Metropolis;-inkscape-font-specification:'Metropolis Heavy';text-align:center;text-anchor:middle;stroke-width:0.264583">
      <path
         d="m 10.21878,5.9738904 q 0.176389,-0.1411112 0.296333,-0.3175002 0.127,-0.176389 0.176389,-0.352778 -0.3175,0 -0.550333,-0.2328335 -0.2257784,-0.239889 -0.2257784,-0.5715003 0,-0.3386669 0.2328334,-0.578556 0.239889,-0.2469446 0.564445,-0.2469446 0.366889,0 0.599722,0.3033891 0.232834,0.3033891 0.232834,0.7831672 0,0.3880558 -0.232834,0.7972783 -0.232833,0.4092225 -0.649111,0.7549449 z"
         id="path612" />
    </g>
  </g>
</svg>
