solid OpenSCAD_Model
  facet normal 1 -0 0
    outer loop
      vertex 55.34 51 9.6
      vertex 55.34 55.34 0
      vertex 55.34 55.34 9.6
    endloop
  endfacet
  facet normal 1 0 0
    outer loop
      vertex 55.34 55.34 0
      vertex 55.34 51 9.6
      vertex 55.34 51 0
    endloop
  endfacet
  facet normal 1 -0 0
    outer loop
      vertex 55.34 0 9.6
      vertex 55.34 41 0
      vertex 55.34 41 9.6
    endloop
  endfacet
  facet normal 1 0 0
    outer loop
      vertex 55.34 41 0
      vertex 55.34 0 9.6
      vertex 55.34 0 0
    endloop
  endfacet
  facet normal 1 -0 0
    outer loop
      vertex 55.34 43 9.6
      vertex 55.34 45 0
      vertex 55.34 45 9.6
    endloop
  endfacet
  facet normal 1 0 0
    outer loop
      vertex 55.34 45 0
      vertex 55.34 43 9.6
      vertex 55.34 43 0
    endloop
  endfacet
  facet normal 1 -0 0
    outer loop
      vertex 55.34 47 9.6
      vertex 55.34 49 0
      vertex 55.34 49 9.6
    endloop
  endfacet
  facet normal 1 0 0
    outer loop
      vertex 55.34 49 0
      vertex 55.34 47 9.6
      vertex 55.34 47 0
    endloop
  endfacet
  facet normal -0 0 1
    outer loop
      vertex 0 45 9.6
      vertex 1 43 9.6
      vertex 1 45 9.6
    endloop
  endfacet
  facet normal 0 0 1
    outer loop
      vertex 1 43 9.6
      vertex 0 45 9.6
      vertex 0 43 9.6
    endloop
  endfacet
  facet normal -0 0 1
    outer loop
      vertex 0 49 9.6
      vertex 1 47 9.6
      vertex 1 49 9.6
    endloop
  endfacet
  facet normal 0 0 1
    outer loop
      vertex 1 47 9.6
      vertex 0 49 9.6
      vertex 0 47 9.6
    endloop
  endfacet
  facet normal 0 0 1
    outer loop
      vertex 4 55.34 9.6
      vertex 2 53.34 9.6
      vertex 4 54.34 9.6
    endloop
  endfacet
  facet normal 0 0 1
    outer loop
      vertex 1 49 9.6
      vertex 2 53.34 9.6
      vertex 1 51 9.6
    endloop
  endfacet
  facet normal -0 0 1
    outer loop
      vertex 0 55.34 9.6
      vertex 2 53.34 9.6
      vertex 4 55.34 9.6
    endloop
  endfacet
  facet normal 0 0 1
    outer loop
      vertex 0 51 9.6
      vertex 2 53.34 9.6
      vertex 0 55.34 9.6
    endloop
  endfacet
  facet normal 0 0 1
    outer loop
      vertex 2 53.34 9.6
      vertex 0 51 9.6
      vertex 1 51 9.6
    endloop
  endfacet
  facet normal -0 0 1
    outer loop
      vertex 53.34 53.34 9.6
      vertex 55.34 51 9.6
      vertex 55.34 55.34 9.6
    endloop
  endfacet
  facet normal 0 0 1
    outer loop
      vertex 53.34 53.34 9.6
      vertex 54.34 49 9.6
      vertex 54.34 51 9.6
    endloop
  endfacet
  facet normal 0 0 1
    outer loop
      vertex 54.34 49 9.6
      vertex 53.34 53.34 9.6
      vertex 54.34 47 9.6
    endloop
  endfacet
  facet normal 0 0 1
    outer loop
      vertex 54.34 47 9.6
      vertex 53.34 53.34 9.6
      vertex 54.34 45 9.6
    endloop
  endfacet
  facet normal 0 0 1
    outer loop
      vertex 54.34 45 9.6
      vertex 53.34 53.34 9.6
      vertex 54.34 43 9.6
    endloop
  endfacet
  facet normal 0 0 1
    outer loop
      vertex 53.34 35.3 9.6
      vertex 54.34 43 9.6
      vertex 53.34 53.34 9.6
    endloop
  endfacet
  facet normal 0 0 1
    outer loop
      vertex 54.34 43 9.6
      vertex 53.34 35.3 9.6
      vertex 54.34 41 9.6
    endloop
  endfacet
  facet normal 0 0 1
    outer loop
      vertex 55.34 51 9.6
      vertex 53.34 53.34 9.6
      vertex 54.34 51 9.6
    endloop
  endfacet
  facet normal -0 0 1
    outer loop
      vertex 51.34 55.34 9.6
      vertex 53.34 53.34 9.6
      vertex 55.34 55.34 9.6
    endloop
  endfacet
  facet normal -0 0 1
    outer loop
      vertex 51.34 54.34 9.6
      vertex 53.34 53.34 9.6
      vertex 51.34 55.34 9.6
    endloop
  endfacet
  facet normal -0 0 1
    outer loop
      vertex 4 54.34 9.6
      vertex 53.34 53.34 9.6
      vertex 51.34 54.34 9.6
    endloop
  endfacet
  facet normal 0 0 1
    outer loop
      vertex 53.34 53.34 9.6
      vertex 4 54.34 9.6
      vertex 2 53.34 9.6
    endloop
  endfacet
  facet normal -0 0 1
    outer loop
      vertex 54.34 49 9.6
      vertex 55.34 47 9.6
      vertex 55.34 49 9.6
    endloop
  endfacet
  facet normal 0 0 1
    outer loop
      vertex 55.34 47 9.6
      vertex 54.34 49 9.6
      vertex 54.34 47 9.6
    endloop
  endfacet
  facet normal -0 0 1
    outer loop
      vertex 54.34 45 9.6
      vertex 55.34 43 9.6
      vertex 55.34 45 9.6
    endloop
  endfacet
  facet normal 0 0 1
    outer loop
      vertex 55.34 43 9.6
      vertex 54.34 45 9.6
      vertex 54.34 43 9.6
    endloop
  endfacet
  facet normal 0 0 1
    outer loop
      vertex 54.34 35.3 9.6
      vertex 55.34 41 9.6
      vertex 54.34 41 9.6
    endloop
  endfacet
  facet normal 0 0 1
    outer loop
      vertex 54.34 25.3 9.6
      vertex 55.34 41 9.6
      vertex 54.34 35.3 9.6
    endloop
  endfacet
  facet normal 0 0 1
    outer loop
      vertex 55.34 41 9.6
      vertex 54.34 25.3 9.6
      vertex 55.34 0 9.6
    endloop
  endfacet
  facet normal -0 0 1
    outer loop
      vertex 54.34 6 9.6
      vertex 55.34 0 9.6
      vertex 54.34 25.3 9.6
    endloop
  endfacet
  facet normal -0 0 1
    outer loop
      vertex 54.34 2 9.6
      vertex 55.34 0 9.6
      vertex 54.34 6 9.6
    endloop
  endfacet
  facet normal 0 0 1
    outer loop
      vertex 55.34 0 9.6
      vertex 54.34 2 9.6
      vertex 54.34 0 9.6
    endloop
  endfacet
  facet normal 0 0 1
    outer loop
      vertex 54.34 41 9.6
      vertex 53.34 35.3 9.6
      vertex 54.34 35.3 9.6
    endloop
  endfacet
  facet normal 0 0 1
    outer loop
      vertex 1 47 9.6
      vertex 2 53.34 9.6
      vertex 1 49 9.6
    endloop
  endfacet
  facet normal 0 0 1
    outer loop
      vertex 1 45 9.6
      vertex 2 53.34 9.6
      vertex 1 47 9.6
    endloop
  endfacet
  facet normal 0 0 1
    outer loop
      vertex 2 53.34 9.6
      vertex 1 45 9.6
      vertex 2 35.3 9.6
    endloop
  endfacet
  facet normal -0 0 1
    outer loop
      vertex 1 43 9.6
      vertex 2 35.3 9.6
      vertex 1 45 9.6
    endloop
  endfacet
  facet normal -0 0 1
    outer loop
      vertex 1 41 9.6
      vertex 2 35.3 9.6
      vertex 1 43 9.6
    endloop
  endfacet
  facet normal 0 0 1
    outer loop
      vertex 1 41 9.6
      vertex 1 35.3 9.6
      vertex 2 35.3 9.6
    endloop
  endfacet
  facet normal -0 0 1
    outer loop
      vertex 0 41 9.6
      vertex 1 35.3 9.6
      vertex 1 41 9.6
    endloop
  endfacet
  facet normal 0 0 1
    outer loop
      vertex 1 35.3 9.6
      vertex 0 41 9.6
      vertex 1 25.3 9.6
    endloop
  endfacet
  facet normal 0 0 1
    outer loop
      vertex 0 0 9.6
      vertex 1 25.3 9.6
      vertex 0 41 9.6
    endloop
  endfacet
  facet normal 0 0 1
    outer loop
      vertex 1 25.3 9.6
      vertex 0 0 9.6
      vertex 1 6 9.6
    endloop
  endfacet
  facet normal 0 0 1
    outer loop
      vertex 1 6 9.6
      vertex 0 0 9.6
      vertex 1 2 9.6
    endloop
  endfacet
  facet normal 0 0 1
    outer loop
      vertex 1 2 9.6
      vertex 0 0 9.6
      vertex 1 0 9.6
    endloop
  endfacet
  facet normal 0 0 -1
    outer loop
      vertex 0 47 0
      vertex 1 49 0
      vertex 1 47 0
    endloop
  endfacet
  facet normal -0 0 -1
    outer loop
      vertex 1 49 0
      vertex 0 47 0
      vertex 0 49 0
    endloop
  endfacet
  facet normal 0 0 -1
    outer loop
      vertex 0 43 0
      vertex 1 45 0
      vertex 1 43 0
    endloop
  endfacet
  facet normal -0 0 -1
    outer loop
      vertex 1 45 0
      vertex 0 43 0
      vertex 0 45 0
    endloop
  endfacet
  facet normal 0 0 -1
    outer loop
      vertex 0 0 0
      vertex 2 8 0
      vertex 2 0 0
    endloop
  endfacet
  facet normal 0 0 -1
    outer loop
      vertex 0 41 0
      vertex 2 8 0
      vertex 0 0 0
    endloop
  endfacet
  facet normal 0 0 -1
    outer loop
      vertex 2 8 0
      vertex 0 41 0
      vertex 1 41 0
    endloop
  endfacet
  facet normal 0 0 -1
    outer loop
      vertex 53.34 8 0
      vertex 55.34 41 0
      vertex 55.34 0 0
    endloop
  endfacet
  facet normal 0 0 -1
    outer loop
      vertex 51.34 55.34 0
      vertex 54.34 43 0
      vertex 54.34 41 0
    endloop
  endfacet
  facet normal 0 0 -1
    outer loop
      vertex 54.34 43 0
      vertex 51.34 55.34 0
      vertex 54.34 45 0
    endloop
  endfacet
  facet normal 0 0 -1
    outer loop
      vertex 54.34 45 0
      vertex 51.34 55.34 0
      vertex 54.34 47 0
    endloop
  endfacet
  facet normal 0 0 -1
    outer loop
      vertex 54.34 47 0
      vertex 51.34 55.34 0
      vertex 54.34 49 0
    endloop
  endfacet
  facet normal 0 0 -1
    outer loop
      vertex 51.34 18 0
      vertex 55.34 41 0
      vertex 53.34 8 0
    endloop
  endfacet
  facet normal 0 0 -1
    outer loop
      vertex 53.34 8 0
      vertex 55.34 0 0
      vertex 53.34 0 0
    endloop
  endfacet
  facet normal 0 0 -1
    outer loop
      vertex 54.34 43 0
      vertex 55.34 45 0
      vertex 55.34 43 0
    endloop
  endfacet
  facet normal -0 0 -1
    outer loop
      vertex 55.34 45 0
      vertex 54.34 43 0
      vertex 54.34 45 0
    endloop
  endfacet
  facet normal 0 0 -1
    outer loop
      vertex 54.34 47 0
      vertex 55.34 49 0
      vertex 55.34 47 0
    endloop
  endfacet
  facet normal -0 0 -1
    outer loop
      vertex 55.34 49 0
      vertex 54.34 47 0
      vertex 54.34 49 0
    endloop
  endfacet
  facet normal 0 0 -1
    outer loop
      vertex 54.34 51 0
      vertex 55.34 55.34 0
      vertex 55.34 51 0
    endloop
  endfacet
  facet normal -0 0 -1
    outer loop
      vertex 55.34 41 0
      vertex 51.34 18 0
      vertex 54.34 41 0
    endloop
  endfacet
  facet normal 0 0 -1
    outer loop
      vertex 51.34 55.34 0
      vertex 54.34 41 0
      vertex 51.34 18 0
    endloop
  endfacet
  facet normal 0 0 -1
    outer loop
      vertex 54.34 51 0
      vertex 51.34 55.34 0
      vertex 55.34 55.34 0
    endloop
  endfacet
  facet normal 0 0 -1
    outer loop
      vertex 54.34 49 0
      vertex 51.34 55.34 0
      vertex 54.34 51 0
    endloop
  endfacet
  facet normal 0 0 -1
    outer loop
      vertex 53.34 8 0
      vertex 4 18 0
      vertex 51.34 18 0
    endloop
  endfacet
  facet normal 0 0 -1
    outer loop
      vertex 2 8 0
      vertex 4 18 0
      vertex 53.34 8 0
    endloop
  endfacet
  facet normal 0 0 -1
    outer loop
      vertex 1 41 0
      vertex 4 18 0
      vertex 2 8 0
    endloop
  endfacet
  facet normal 0 0 -1
    outer loop
      vertex 4 18 0
      vertex 1 41 0
      vertex 4 55.34 0
    endloop
  endfacet
  facet normal 0 0 -1
    outer loop
      vertex 1 43 0
      vertex 4 55.34 0
      vertex 1 41 0
    endloop
  endfacet
  facet normal 0 0 -1
    outer loop
      vertex 1 45 0
      vertex 4 55.34 0
      vertex 1 43 0
    endloop
  endfacet
  facet normal 0 0 -1
    outer loop
      vertex 1 47 0
      vertex 4 55.34 0
      vertex 1 45 0
    endloop
  endfacet
  facet normal 0 0 -1
    outer loop
      vertex 1 49 0
      vertex 4 55.34 0
      vertex 1 47 0
    endloop
  endfacet
  facet normal 0 0 -1
    outer loop
      vertex 1 51 0
      vertex 4 55.34 0
      vertex 1 49 0
    endloop
  endfacet
  facet normal 0 0 -1
    outer loop
      vertex 0 55.34 0
      vertex 1 51 0
      vertex 0 51 0
    endloop
  endfacet
  facet normal 0 0 -1
    outer loop
      vertex 1 51 0
      vertex 0 55.34 0
      vertex 4 55.34 0
    endloop
  endfacet
  facet normal -1 0 0
    outer loop
      vertex 0 51 0
      vertex 0 55.34 9.6
      vertex 0 55.34 0
    endloop
  endfacet
  facet normal -1 -0 0
    outer loop
      vertex 0 55.34 9.6
      vertex 0 51 0
      vertex 0 51 9.6
    endloop
  endfacet
  facet normal -1 0 0
    outer loop
      vertex 0 0 0
      vertex 0 41 9.6
      vertex 0 41 0
    endloop
  endfacet
  facet normal -1 -0 0
    outer loop
      vertex 0 41 9.6
      vertex 0 0 0
      vertex 0 0 9.6
    endloop
  endfacet
  facet normal -1 0 0
    outer loop
      vertex 0 43 0
      vertex 0 45 9.6
      vertex 0 45 0
    endloop
  endfacet
  facet normal -1 -0 0
    outer loop
      vertex 0 45 9.6
      vertex 0 43 0
      vertex 0 43 9.6
    endloop
  endfacet
  facet normal -1 0 0
    outer loop
      vertex 0 47 0
      vertex 0 49 9.6
      vertex 0 49 0
    endloop
  endfacet
  facet normal -1 -0 0
    outer loop
      vertex 0 49 9.6
      vertex 0 47 0
      vertex 0 47 9.6
    endloop
  endfacet
  facet normal 0 1 -0
    outer loop
      vertex 55.34 55.34 0
      vertex 51.34 55.34 9.6
      vertex 55.34 55.34 9.6
    endloop
  endfacet
  facet normal 0 1 0
    outer loop
      vertex 51.34 55.34 9.6
      vertex 55.34 55.34 0
      vertex 51.34 55.34 0
    endloop
  endfacet
  facet normal 0 1 -0
    outer loop
      vertex 4 55.34 0
      vertex 0 55.34 9.6
      vertex 4 55.34 9.6
    endloop
  endfacet
  facet normal 0 1 0
    outer loop
      vertex 0 55.34 9.6
      vertex 4 55.34 0
      vertex 0 55.34 0
    endloop
  endfacet
  facet normal 0 -1 0
    outer loop
      vertex 0 0 9.6
      vertex 1 0 1
      vertex 1 0 9.6
    endloop
  endfacet
  facet normal 0 -1 0
    outer loop
      vertex 0 0 0
      vertex 1 0 1
      vertex 0 0 9.6
    endloop
  endfacet
  facet normal 0 -1 0
    outer loop
      vertex 2 0 0
      vertex 1 0 1
      vertex 0 0 0
    endloop
  endfacet
  facet normal 0 -1 0
    outer loop
      vertex 1 0 1
      vertex 2 0 0
      vertex 2 0 1
    endloop
  endfacet
  facet normal 0 -1 0
    outer loop
      vertex 53.34 0 1
      vertex 53.34 0 0
      vertex 54.34 0 1
    endloop
  endfacet
  facet normal 0 -1 0
    outer loop
      vertex 54.34 0 1
      vertex 55.34 0 9.6
      vertex 54.34 0 9.6
    endloop
  endfacet
  facet normal 0 -1 0
    outer loop
      vertex 54.34 0 1
      vertex 55.34 0 0
      vertex 55.34 0 9.6
    endloop
  endfacet
  facet normal 0 -1 0
    outer loop
      vertex 55.34 0 0
      vertex 54.34 0 1
      vertex 53.34 0 0
    endloop
  endfacet
  facet normal 1 -0 0
    outer loop
      vertex 54.34 2 10.6
      vertex 54.34 6 9.6
      vertex 54.34 6 10.6
    endloop
  endfacet
  facet normal 1 0 0
    outer loop
      vertex 54.34 6 9.6
      vertex 54.34 2 10.6
      vertex 54.34 2 9.6
    endloop
  endfacet
  facet normal 1 -0 0
    outer loop
      vertex 54.34 25.3 10.6
      vertex 54.34 35.3 9.6
      vertex 54.34 35.3 10.6
    endloop
  endfacet
  facet normal 1 0 0
    outer loop
      vertex 54.34 35.3 9.6
      vertex 54.34 25.3 10.6
      vertex 54.34 25.3 9.6
    endloop
  endfacet
  facet normal -1 0 0
    outer loop
      vertex 54.34 0 1
      vertex 54.34 2 9.6
      vertex 54.34 2 1
    endloop
  endfacet
  facet normal -1 -0 0
    outer loop
      vertex 54.34 2 9.6
      vertex 54.34 0 1
      vertex 54.34 0 9.6
    endloop
  endfacet
  facet normal -1 0 0
    outer loop
      vertex 54.34 6 1
      vertex 54.34 25.3 9.6
      vertex 54.34 25.3 1
    endloop
  endfacet
  facet normal -1 -0 0
    outer loop
      vertex 54.34 25.3 9.6
      vertex 54.34 6 1
      vertex 54.34 6 9.6
    endloop
  endfacet
  facet normal -0 0 1
    outer loop
      vertex 53.34 2 1
      vertex 54.34 0 1
      vertex 54.34 2 1
    endloop
  endfacet
  facet normal 0 0 1
    outer loop
      vertex 54.34 0 1
      vertex 53.34 2 1
      vertex 53.34 0 1
    endloop
  endfacet
  facet normal -0 0 1
    outer loop
      vertex 1 2 1
      vertex 2 0 1
      vertex 2 2 1
    endloop
  endfacet
  facet normal 0 0 1
    outer loop
      vertex 2 0 1
      vertex 1 2 1
      vertex 1 0 1
    endloop
  endfacet
  facet normal 0 0 1
    outer loop
      vertex 2 25.3 1
      vertex 3 53.34 1
      vertex 2 53.34 1
    endloop
  endfacet
  facet normal 0 0 1
    outer loop
      vertex 52.34 16 1
      vertex 54.34 25.3 1
      vertex 53.34 25.3 1
    endloop
  endfacet
  facet normal 0 0 1
    outer loop
      vertex 54.34 25.3 1
      vertex 52.34 16 1
      vertex 54.34 6 1
    endloop
  endfacet
  facet normal 0 0 1
    outer loop
      vertex 54.34 6 1
      vertex 53.34 8 1
      vertex 53.34 6 1
    endloop
  endfacet
  facet normal -0 0 1
    outer loop
      vertex 52.34 53.34 1
      vertex 53.34 25.3 1
      vertex 53.34 53.34 1
    endloop
  endfacet
  facet normal 0 0 1
    outer loop
      vertex 53.34 25.3 1
      vertex 52.34 53.34 1
      vertex 52.34 16 1
    endloop
  endfacet
  facet normal 0 0 1
    outer loop
      vertex 54.34 6 1
      vertex 52.34 16 1
      vertex 53.34 8 1
    endloop
  endfacet
  facet normal -0 0 1
    outer loop
      vertex 3 16 1
      vertex 53.34 8 1
      vertex 52.34 16 1
    endloop
  endfacet
  facet normal 0 0 1
    outer loop
      vertex 3 53.34 1
      vertex 2 25.3 1
      vertex 3 16 1
    endloop
  endfacet
  facet normal 0 0 1
    outer loop
      vertex 3 16 1
      vertex 2 8 1
      vertex 53.34 8 1
    endloop
  endfacet
  facet normal -0 0 1
    outer loop
      vertex 1 25.3 1
      vertex 3 16 1
      vertex 2 25.3 1
    endloop
  endfacet
  facet normal 0 0 1
    outer loop
      vertex 1 6 1
      vertex 3 16 1
      vertex 1 25.3 1
    endloop
  endfacet
  facet normal 0 0 1
    outer loop
      vertex 3 16 1
      vertex 1 6 1
      vertex 2 8 1
    endloop
  endfacet
  facet normal 0 0 1
    outer loop
      vertex 2 8 1
      vertex 1 6 1
      vertex 2 6 1
    endloop
  endfacet
  facet normal -1 0 0
    outer loop
      vertex 1 2 9.6
      vertex 1 6 10.6
      vertex 1 6 9.6
    endloop
  endfacet
  facet normal -1 -0 0
    outer loop
      vertex 1 6 10.6
      vertex 1 2 9.6
      vertex 1 2 10.6
    endloop
  endfacet
  facet normal -1 0 0
    outer loop
      vertex 1 25.3 9.6
      vertex 1 35.3 10.6
      vertex 1 35.3 9.6
    endloop
  endfacet
  facet normal -1 -0 0
    outer loop
      vertex 1 35.3 10.6
      vertex 1 25.3 9.6
      vertex 1 25.3 10.6
    endloop
  endfacet
  facet normal 1 -0 0
    outer loop
      vertex 1 0 9.6
      vertex 1 2 1
      vertex 1 2 9.6
    endloop
  endfacet
  facet normal 1 0 0
    outer loop
      vertex 1 2 1
      vertex 1 0 9.6
      vertex 1 0 1
    endloop
  endfacet
  facet normal 1 -0 0
    outer loop
      vertex 1 6 9.6
      vertex 1 25.3 1
      vertex 1 25.3 9.6
    endloop
  endfacet
  facet normal 1 0 0
    outer loop
      vertex 1 25.3 1
      vertex 1 6 9.6
      vertex 1 6 1
    endloop
  endfacet
  facet normal 0 -1 0
    outer loop
      vertex 2 53.34 9.6
      vertex 3 53.34 2
      vertex 53.34 53.34 9.6
    endloop
  endfacet
  facet normal 0 -1 0
    outer loop
      vertex 2 53.34 1
      vertex 3 53.34 2
      vertex 2 53.34 9.6
    endloop
  endfacet
  facet normal 0 -1 -0
    outer loop
      vertex 3 53.34 2
      vertex 2 53.34 1
      vertex 3 53.34 1
    endloop
  endfacet
  facet normal 0 -1 0
    outer loop
      vertex 52.34 53.34 2
      vertex 53.34 53.34 9.6
      vertex 3 53.34 2
    endloop
  endfacet
  facet normal 0 -1 0
    outer loop
      vertex 53.34 53.34 1
      vertex 52.34 53.34 2
      vertex 52.34 53.34 1
    endloop
  endfacet
  facet normal 0 -1 0
    outer loop
      vertex 52.34 53.34 2
      vertex 53.34 53.34 1
      vertex 53.34 53.34 9.6
    endloop
  endfacet
  facet normal 1 0 0
    outer loop
      vertex 2 35.3 10.6
      vertex 2 25.3 10.6
      vertex 2 35.3 9.6
    endloop
  endfacet
  facet normal 1 -0 0
    outer loop
      vertex 2 35.3 9.6
      vertex 2 53.34 1
      vertex 2 53.34 9.6
    endloop
  endfacet
  facet normal 1 0 0
    outer loop
      vertex 2 25.3 1
      vertex 2 35.3 9.6
      vertex 2 25.3 10.6
    endloop
  endfacet
  facet normal 1 0 0
    outer loop
      vertex 2 35.3 9.6
      vertex 2 25.3 1
      vertex 2 53.34 1
    endloop
  endfacet
  facet normal -1 0 0
    outer loop
      vertex 53.34 53.34 1
      vertex 53.34 35.3 9.6
      vertex 53.34 53.34 9.6
    endloop
  endfacet
  facet normal -1 0 0
    outer loop
      vertex 53.34 25.3 1
      vertex 53.34 35.3 9.6
      vertex 53.34 53.34 1
    endloop
  endfacet
  facet normal -1 0 0
    outer loop
      vertex 53.34 25.3 10.6
      vertex 53.34 35.3 9.6
      vertex 53.34 25.3 1
    endloop
  endfacet
  facet normal -1 0 0
    outer loop
      vertex 53.34 35.3 9.6
      vertex 53.34 25.3 10.6
      vertex 53.34 35.3 10.6
    endloop
  endfacet
  facet normal -0 0 1
    outer loop
      vertex 1 35.3 10.6
      vertex 2 25.3 10.6
      vertex 2 35.3 10.6
    endloop
  endfacet
  facet normal 0 0 1
    outer loop
      vertex 2 25.3 10.6
      vertex 1 35.3 10.6
      vertex 1 25.3 10.6
    endloop
  endfacet
  facet normal 0 1 -0
    outer loop
      vertex 2 35.3 9.6
      vertex 1 35.3 10.6
      vertex 2 35.3 10.6
    endloop
  endfacet
  facet normal 0 1 0
    outer loop
      vertex 1 35.3 10.6
      vertex 2 35.3 9.6
      vertex 1 35.3 9.6
    endloop
  endfacet
  facet normal 0 -1 0
    outer loop
      vertex 1 25.3 9.6
      vertex 2 25.3 10.6
      vertex 1 25.3 10.6
    endloop
  endfacet
  facet normal 0 -1 0
    outer loop
      vertex 2 25.3 1
      vertex 1 25.3 9.6
      vertex 1 25.3 1
    endloop
  endfacet
  facet normal 0 -1 0
    outer loop
      vertex 1 25.3 9.6
      vertex 2 25.3 1
      vertex 2 25.3 10.6
    endloop
  endfacet
  facet normal -0 0 1
    outer loop
      vertex 53.34 35.3 10.6
      vertex 54.34 25.3 10.6
      vertex 54.34 35.3 10.6
    endloop
  endfacet
  facet normal 0 0 1
    outer loop
      vertex 54.34 25.3 10.6
      vertex 53.34 35.3 10.6
      vertex 53.34 25.3 10.6
    endloop
  endfacet
  facet normal 0 1 -0
    outer loop
      vertex 54.34 35.3 9.6
      vertex 53.34 35.3 10.6
      vertex 54.34 35.3 10.6
    endloop
  endfacet
  facet normal 0 1 0
    outer loop
      vertex 53.34 35.3 10.6
      vertex 54.34 35.3 9.6
      vertex 53.34 35.3 9.6
    endloop
  endfacet
  facet normal 0 -1 0
    outer loop
      vertex 53.34 25.3 10.6
      vertex 54.34 25.3 9.6
      vertex 54.34 25.3 10.6
    endloop
  endfacet
  facet normal 0 -1 0
    outer loop
      vertex 53.34 25.3 1
      vertex 54.34 25.3 9.6
      vertex 53.34 25.3 10.6
    endloop
  endfacet
  facet normal 0 -1 -0
    outer loop
      vertex 54.34 25.3 9.6
      vertex 53.34 25.3 1
      vertex 54.34 25.3 1
    endloop
  endfacet
  facet normal 1 -0 0
    outer loop
      vertex 2 2 10.6
      vertex 2 6 3
      vertex 2 6 10.6
    endloop
  endfacet
  facet normal 1 0 0
    outer loop
      vertex 2 6 3
      vertex 2 2 10.6
      vertex 2 2 3
    endloop
  endfacet
  facet normal 1 0 0
    outer loop
      vertex 2 6 3
      vertex 2 2 3
      vertex 2 6 1
    endloop
  endfacet
  facet normal 1 -0 0
    outer loop
      vertex 2 6 1
      vertex 2 8 0
      vertex 2 8 1
    endloop
  endfacet
  facet normal 1 0 0
    outer loop
      vertex 2 2 1
      vertex 2 6 1
      vertex 2 2 3
    endloop
  endfacet
  facet normal 1 0 0
    outer loop
      vertex 2 6 1
      vertex 2 2 1
      vertex 2 8 0
    endloop
  endfacet
  facet normal 1 0 0
    outer loop
      vertex 2 0 0
      vertex 2 2 1
      vertex 2 0 1
    endloop
  endfacet
  facet normal 1 0 0
    outer loop
      vertex 2 2 1
      vertex 2 0 0
      vertex 2 8 0
    endloop
  endfacet
  facet normal -0 0 1
    outer loop
      vertex 1 6 10.6
      vertex 2 2 10.6
      vertex 2 6 10.6
    endloop
  endfacet
  facet normal 0 0 1
    outer loop
      vertex 2 2 10.6
      vertex 1 6 10.6
      vertex 1 2 10.6
    endloop
  endfacet
  facet normal 0 1 0
    outer loop
      vertex 2 6 10.6
      vertex 1 6 9.6
      vertex 1 6 10.6
    endloop
  endfacet
  facet normal 0 1 -0
    outer loop
      vertex 2 6 3
      vertex 1 6 9.6
      vertex 2 6 10.6
    endloop
  endfacet
  facet normal 0 1 0
    outer loop
      vertex 1 6 1
      vertex 2 6 3
      vertex 2 6 1
    endloop
  endfacet
  facet normal 0 1 0
    outer loop
      vertex 2 6 3
      vertex 1 6 1
      vertex 1 6 9.6
    endloop
  endfacet
  facet normal 0 -1 0
    outer loop
      vertex 1 2 9.6
      vertex 2 2 10.6
      vertex 1 2 10.6
    endloop
  endfacet
  facet normal 0 -1 0
    outer loop
      vertex 1 2 9.6
      vertex 2 2 3
      vertex 2 2 10.6
    endloop
  endfacet
  facet normal 0 -1 0
    outer loop
      vertex 1 2 1
      vertex 2 2 3
      vertex 1 2 9.6
    endloop
  endfacet
  facet normal 0 -1 -0
    outer loop
      vertex 2 2 3
      vertex 1 2 1
      vertex 2 2 1
    endloop
  endfacet
  facet normal -0 0 1
    outer loop
      vertex 53.34 6 10.6
      vertex 54.34 2 10.6
      vertex 54.34 6 10.6
    endloop
  endfacet
  facet normal 0 0 1
    outer loop
      vertex 54.34 2 10.6
      vertex 53.34 6 10.6
      vertex 53.34 2 10.6
    endloop
  endfacet
  facet normal -1 0 0
    outer loop
      vertex 53.34 2 3
      vertex 53.34 6 10.6
      vertex 53.34 6 3
    endloop
  endfacet
  facet normal -1 -0 0
    outer loop
      vertex 53.34 6 10.6
      vertex 53.34 2 3
      vertex 53.34 2 10.6
    endloop
  endfacet
  facet normal -1 0 0
    outer loop
      vertex 53.34 8 0
      vertex 53.34 6 1
      vertex 53.34 8 1
    endloop
  endfacet
  facet normal -1 0 0
    outer loop
      vertex 53.34 6 1
      vertex 53.34 2 1
      vertex 53.34 6 3
    endloop
  endfacet
  facet normal -1 0 0
    outer loop
      vertex 53.34 8 0
      vertex 53.34 2 1
      vertex 53.34 6 1
    endloop
  endfacet
  facet normal -1 0 0
    outer loop
      vertex 53.34 0 0
      vertex 53.34 2 1
      vertex 53.34 8 0
    endloop
  endfacet
  facet normal -1 -0 0
    outer loop
      vertex 53.34 2 1
      vertex 53.34 0 0
      vertex 53.34 0 1
    endloop
  endfacet
  facet normal -1 -0 0
    outer loop
      vertex 53.34 6 3
      vertex 53.34 2 1
      vertex 53.34 2 3
    endloop
  endfacet
  facet normal 0 1 -0
    outer loop
      vertex 54.34 6 9.6
      vertex 53.34 6 10.6
      vertex 54.34 6 10.6
    endloop
  endfacet
  facet normal 0 1 0
    outer loop
      vertex 54.34 6 9.6
      vertex 53.34 6 3
      vertex 53.34 6 10.6
    endloop
  endfacet
  facet normal 0 1 -0
    outer loop
      vertex 54.34 6 1
      vertex 53.34 6 3
      vertex 54.34 6 9.6
    endloop
  endfacet
  facet normal 0 1 0
    outer loop
      vertex 53.34 6 3
      vertex 54.34 6 1
      vertex 53.34 6 1
    endloop
  endfacet
  facet normal 0 -1 0
    outer loop
      vertex 53.34 2 10.6
      vertex 54.34 2 9.6
      vertex 54.34 2 10.6
    endloop
  endfacet
  facet normal 0 -1 0
    outer loop
      vertex 53.34 2 3
      vertex 54.34 2 9.6
      vertex 53.34 2 10.6
    endloop
  endfacet
  facet normal 0 -1 0
    outer loop
      vertex 54.34 2 1
      vertex 53.34 2 3
      vertex 53.34 2 1
    endloop
  endfacet
  facet normal 0 -1 0
    outer loop
      vertex 53.34 2 3
      vertex 54.34 2 1
      vertex 54.34 2 9.6
    endloop
  endfacet
  facet normal 1 -0 0
    outer loop
      vertex 52.34 16 2
      vertex 52.34 53.34 1
      vertex 52.34 53.34 2
    endloop
  endfacet
  facet normal 1 0 0
    outer loop
      vertex 52.34 53.34 1
      vertex 52.34 16 2
      vertex 52.34 16 1
    endloop
  endfacet
  facet normal -0 0 1
    outer loop
      vertex 32.8682 31.634 2
      vertex 52.34 16 2
      vertex 52.34 53.34 2
    endloop
  endfacet
  facet normal 0 0 1
    outer loop
      vertex 52.34 16 2
      vertex 32.8682 31.634 2
      vertex 32.97 30.6 2
    endloop
  endfacet
  facet normal 0 0 1
    outer loop
      vertex 52.34 53.34 2
      vertex 32.5666 32.6282 2
      vertex 32.8682 31.634 2
    endloop
  endfacet
  facet normal 0 0 1
    outer loop
      vertex 52.34 53.34 2
      vertex 32.0768 33.5445 2
      vertex 32.5666 32.6282 2
    endloop
  endfacet
  facet normal 0 0 1
    outer loop
      vertex 52.34 53.34 2
      vertex 31.4177 34.3477 2
      vertex 32.0768 33.5445 2
    endloop
  endfacet
  facet normal 0 0 1
    outer loop
      vertex 52.34 53.34 2
      vertex 30.6145 35.0068 2
      vertex 31.4177 34.3477 2
    endloop
  endfacet
  facet normal 0 0 1
    outer loop
      vertex 52.34 53.34 2
      vertex 29.6982 35.4966 2
      vertex 30.6145 35.0068 2
    endloop
  endfacet
  facet normal 0 0 1
    outer loop
      vertex 52.34 53.34 2
      vertex 28.704 35.7982 2
      vertex 29.6982 35.4966 2
    endloop
  endfacet
  facet normal 0 0 1
    outer loop
      vertex 52.34 53.34 2
      vertex 27.67 35.9 2
      vertex 28.704 35.7982 2
    endloop
  endfacet
  facet normal -0 0 1
    outer loop
      vertex 3 53.34 2
      vertex 27.67 35.9 2
      vertex 52.34 53.34 2
    endloop
  endfacet
  facet normal 0 0 1
    outer loop
      vertex 27.67 35.9 2
      vertex 3 53.34 2
      vertex 26.636 35.7982 2
    endloop
  endfacet
  facet normal 0 0 1
    outer loop
      vertex 26.636 35.7982 2
      vertex 3 53.34 2
      vertex 25.6418 35.4966 2
    endloop
  endfacet
  facet normal 0 0 1
    outer loop
      vertex 3 16 2
      vertex 22.4718 31.634 2
      vertex 3 53.34 2
    endloop
  endfacet
  facet normal 0 0 1
    outer loop
      vertex 22.7734 32.6282 2
      vertex 3 53.34 2
      vertex 22.4718 31.634 2
    endloop
  endfacet
  facet normal 0 0 1
    outer loop
      vertex 23.2632 33.5445 2
      vertex 3 53.34 2
      vertex 22.7734 32.6282 2
    endloop
  endfacet
  facet normal 0 0 1
    outer loop
      vertex 23.9223 34.3477 2
      vertex 3 53.34 2
      vertex 23.2632 33.5445 2
    endloop
  endfacet
  facet normal 0 0 1
    outer loop
      vertex 24.7255 35.0068 2
      vertex 3 53.34 2
      vertex 23.9223 34.3477 2
    endloop
  endfacet
  facet normal 0 0 1
    outer loop
      vertex 25.6418 35.4966 2
      vertex 3 53.34 2
      vertex 24.7255 35.0068 2
    endloop
  endfacet
  facet normal -0 0 1
    outer loop
      vertex 32.8682 29.566 2
      vertex 52.34 16 2
      vertex 32.97 30.6 2
    endloop
  endfacet
  facet normal -0 0 1
    outer loop
      vertex 32.5666 28.5718 2
      vertex 52.34 16 2
      vertex 32.8682 29.566 2
    endloop
  endfacet
  facet normal -0 0 1
    outer loop
      vertex 32.0768 27.6555 2
      vertex 52.34 16 2
      vertex 32.5666 28.5718 2
    endloop
  endfacet
  facet normal -0 0 1
    outer loop
      vertex 31.4177 26.8523 2
      vertex 52.34 16 2
      vertex 32.0768 27.6555 2
    endloop
  endfacet
  facet normal -0 0 1
    outer loop
      vertex 30.6145 26.1932 2
      vertex 52.34 16 2
      vertex 31.4177 26.8523 2
    endloop
  endfacet
  facet normal -0 0 1
    outer loop
      vertex 29.6982 25.7034 2
      vertex 52.34 16 2
      vertex 30.6145 26.1932 2
    endloop
  endfacet
  facet normal -0 0 1
    outer loop
      vertex 28.704 25.4018 2
      vertex 52.34 16 2
      vertex 29.6982 25.7034 2
    endloop
  endfacet
  facet normal -0 0 1
    outer loop
      vertex 27.67 25.3 2
      vertex 52.34 16 2
      vertex 28.704 25.4018 2
    endloop
  endfacet
  facet normal 0 0 1
    outer loop
      vertex 3 16 2
      vertex 27.67 25.3 2
      vertex 26.636 25.4018 2
    endloop
  endfacet
  facet normal 0 0 1
    outer loop
      vertex 3 16 2
      vertex 26.636 25.4018 2
      vertex 25.6418 25.7034 2
    endloop
  endfacet
  facet normal 0 0 1
    outer loop
      vertex 22.4718 31.634 2
      vertex 3 16 2
      vertex 22.37 30.6 2
    endloop
  endfacet
  facet normal 0 0 1
    outer loop
      vertex 22.37 30.6 2
      vertex 3 16 2
      vertex 22.4718 29.566 2
    endloop
  endfacet
  facet normal 0 0 1
    outer loop
      vertex 22.4718 29.566 2
      vertex 3 16 2
      vertex 22.7734 28.5718 2
    endloop
  endfacet
  facet normal 0 0 1
    outer loop
      vertex 27.67 25.3 2
      vertex 3 16 2
      vertex 52.34 16 2
    endloop
  endfacet
  facet normal 0 0 1
    outer loop
      vertex 24.7255 26.1932 2
      vertex 3 16 2
      vertex 25.6418 25.7034 2
    endloop
  endfacet
  facet normal 0 0 1
    outer loop
      vertex 23.9223 26.8523 2
      vertex 3 16 2
      vertex 24.7255 26.1932 2
    endloop
  endfacet
  facet normal 0 0 1
    outer loop
      vertex 23.2632 27.6555 2
      vertex 3 16 2
      vertex 23.9223 26.8523 2
    endloop
  endfacet
  facet normal 0 0 1
    outer loop
      vertex 22.7734 28.5718 2
      vertex 3 16 2
      vertex 23.2632 27.6555 2
    endloop
  endfacet
  facet normal -1 0 0
    outer loop
      vertex 3 16 1
      vertex 3 53.34 2
      vertex 3 53.34 1
    endloop
  endfacet
  facet normal -1 -0 0
    outer loop
      vertex 3 53.34 2
      vertex 3 16 1
      vertex 3 16 2
    endloop
  endfacet
  facet normal 0 -1 0
    outer loop
      vertex 3 16 1
      vertex 52.34 16 2
      vertex 3 16 2
    endloop
  endfacet
  facet normal 0 -1 -0
    outer loop
      vertex 52.34 16 2
      vertex 3 16 1
      vertex 52.34 16 1
    endloop
  endfacet
  facet normal 0.471417 -0.88191 0
    outer loop
      vertex 29.6982 25.7034 2
      vertex 30.6145 26.1932 10.6
      vertex 29.6982 25.7034 10.6
    endloop
  endfacet
  facet normal 0.471417 -0.88191 0
    outer loop
      vertex 30.6145 26.1932 10.6
      vertex 29.6982 25.7034 2
      vertex 30.6145 26.1932 2
    endloop
  endfacet
  facet normal 0.956937 0.290296 0
    outer loop
      vertex 32.8682 31.634 10.6
      vertex 32.5666 32.6282 2
      vertex 32.5666 32.6282 10.6
    endloop
  endfacet
  facet normal 0.956937 0.290296 0
    outer loop
      vertex 32.5666 32.6282 2
      vertex 32.8682 31.634 10.6
      vertex 32.8682 31.634 2
    endloop
  endfacet
  facet normal 0.290296 -0.956937 0
    outer loop
      vertex 28.704 25.4018 2
      vertex 29.6982 25.7034 10.6
      vertex 28.704 25.4018 10.6
    endloop
  endfacet
  facet normal 0.290296 -0.956937 0
    outer loop
      vertex 29.6982 25.7034 10.6
      vertex 28.704 25.4018 2
      vertex 29.6982 25.7034 2
    endloop
  endfacet
  facet normal 0.290296 0.956937 -0
    outer loop
      vertex 29.6982 35.4966 2
      vertex 28.704 35.7982 10.6
      vertex 29.6982 35.4966 10.6
    endloop
  endfacet
  facet normal 0.290296 0.956937 0
    outer loop
      vertex 28.704 35.7982 10.6
      vertex 29.6982 35.4966 2
      vertex 28.704 35.7982 2
    endloop
  endfacet
  facet normal -0.634353 0.773043 0
    outer loop
      vertex 24.7255 35.0068 2
      vertex 23.9223 34.3477 10.6
      vertex 24.7255 35.0068 10.6
    endloop
  endfacet
  facet normal -0.634353 0.773043 0
    outer loop
      vertex 23.9223 34.3477 10.6
      vertex 24.7255 35.0068 2
      vertex 23.9223 34.3477 2
    endloop
  endfacet
  facet normal 0.995188 -0.0979789 0
    outer loop
      vertex 32.8682 29.566 10.6
      vertex 32.97 30.6 2
      vertex 32.97 30.6 10.6
    endloop
  endfacet
  facet normal 0.995188 -0.0979789 0
    outer loop
      vertex 32.97 30.6 2
      vertex 32.8682 29.566 10.6
      vertex 32.8682 29.566 2
    endloop
  endfacet
  facet normal 0.88191 -0.471417 0
    outer loop
      vertex 32.0768 27.6555 10.6
      vertex 32.5666 28.5718 2
      vertex 32.5666 28.5718 10.6
    endloop
  endfacet
  facet normal 0.88191 -0.471417 0
    outer loop
      vertex 32.5666 28.5718 2
      vertex 32.0768 27.6555 10.6
      vertex 32.0768 27.6555 2
    endloop
  endfacet
  facet normal 0.0979789 -0.995188 0
    outer loop
      vertex 27.67 25.3 2
      vertex 28.704 25.4018 10.6
      vertex 27.67 25.3 10.6
    endloop
  endfacet
  facet normal 0.0979789 -0.995188 0
    outer loop
      vertex 28.704 25.4018 10.6
      vertex 27.67 25.3 2
      vertex 28.704 25.4018 2
    endloop
  endfacet
  facet normal -0.773043 0.634353 0
    outer loop
      vertex 23.2632 33.5445 2
      vertex 23.9223 34.3477 10.6
      vertex 23.9223 34.3477 2
    endloop
  endfacet
  facet normal -0.773043 0.634353 0
    outer loop
      vertex 23.9223 34.3477 10.6
      vertex 23.2632 33.5445 2
      vertex 23.2632 33.5445 10.6
    endloop
  endfacet
  facet normal 0.773043 0.634353 0
    outer loop
      vertex 32.0768 33.5445 10.6
      vertex 31.4177 34.3477 2
      vertex 31.4177 34.3477 10.6
    endloop
  endfacet
  facet normal 0.773043 0.634353 0
    outer loop
      vertex 31.4177 34.3477 2
      vertex 32.0768 33.5445 10.6
      vertex 32.0768 33.5445 2
    endloop
  endfacet
  facet normal 0.995188 0.0979789 0
    outer loop
      vertex 32.97 30.6 10.6
      vertex 32.8682 31.634 2
      vertex 32.8682 31.634 10.6
    endloop
  endfacet
  facet normal 0.995188 0.0979789 0
    outer loop
      vertex 32.8682 31.634 2
      vertex 32.97 30.6 10.6
      vertex 32.97 30.6 2
    endloop
  endfacet
  facet normal 0.634353 0.773043 -0
    outer loop
      vertex 31.4177 34.3477 2
      vertex 30.6145 35.0068 10.6
      vertex 31.4177 34.3477 10.6
    endloop
  endfacet
  facet normal 0.634353 0.773043 0
    outer loop
      vertex 30.6145 35.0068 10.6
      vertex 31.4177 34.3477 2
      vertex 30.6145 35.0068 2
    endloop
  endfacet
  facet normal -0.0979789 0.995188 0
    outer loop
      vertex 27.67 35.9 2
      vertex 26.636 35.7982 10.6
      vertex 27.67 35.9 10.6
    endloop
  endfacet
  facet normal -0.0979789 0.995188 0
    outer loop
      vertex 26.636 35.7982 10.6
      vertex 27.67 35.9 2
      vertex 26.636 35.7982 2
    endloop
  endfacet
  facet normal 0.88191 0.471417 0
    outer loop
      vertex 32.5666 32.6282 10.6
      vertex 32.0768 33.5445 2
      vertex 32.0768 33.5445 10.6
    endloop
  endfacet
  facet normal 0.88191 0.471417 0
    outer loop
      vertex 32.0768 33.5445 2
      vertex 32.5666 32.6282 10.6
      vertex 32.5666 32.6282 2
    endloop
  endfacet
  facet normal 0.471417 0.88191 -0
    outer loop
      vertex 30.6145 35.0068 2
      vertex 29.6982 35.4966 10.6
      vertex 30.6145 35.0068 10.6
    endloop
  endfacet
  facet normal 0.471417 0.88191 0
    outer loop
      vertex 29.6982 35.4966 10.6
      vertex 30.6145 35.0068 2
      vertex 29.6982 35.4966 2
    endloop
  endfacet
  facet normal -0.956937 0.290296 0
    outer loop
      vertex 22.4718 31.634 2
      vertex 22.7734 32.6282 10.6
      vertex 22.7734 32.6282 2
    endloop
  endfacet
  facet normal -0.956937 0.290296 0
    outer loop
      vertex 22.7734 32.6282 10.6
      vertex 22.4718 31.634 2
      vertex 22.4718 31.634 10.6
    endloop
  endfacet
  facet normal -0.88191 0.471417 0
    outer loop
      vertex 22.7734 32.6282 2
      vertex 23.2632 33.5445 10.6
      vertex 23.2632 33.5445 2
    endloop
  endfacet
  facet normal -0.88191 0.471417 0
    outer loop
      vertex 23.2632 33.5445 10.6
      vertex 22.7734 32.6282 2
      vertex 22.7734 32.6282 10.6
    endloop
  endfacet
  facet normal -0.290296 0.956937 0
    outer loop
      vertex 26.636 35.7982 2
      vertex 25.6418 35.4966 10.6
      vertex 26.636 35.7982 10.6
    endloop
  endfacet
  facet normal -0.290296 0.956937 0
    outer loop
      vertex 25.6418 35.4966 10.6
      vertex 26.636 35.7982 2
      vertex 25.6418 35.4966 2
    endloop
  endfacet
  facet normal 0.956937 -0.290296 0
    outer loop
      vertex 32.5666 28.5718 10.6
      vertex 32.8682 29.566 2
      vertex 32.8682 29.566 10.6
    endloop
  endfacet
  facet normal 0.956937 -0.290296 0
    outer loop
      vertex 32.8682 29.566 2
      vertex 32.5666 28.5718 10.6
      vertex 32.5666 28.5718 2
    endloop
  endfacet
  facet normal -0.471417 -0.88191 0
    outer loop
      vertex 24.7255 26.1932 2
      vertex 25.6418 25.7034 10.6
      vertex 24.7255 26.1932 10.6
    endloop
  endfacet
  facet normal -0.471417 -0.88191 -0
    outer loop
      vertex 25.6418 25.7034 10.6
      vertex 24.7255 26.1932 2
      vertex 25.6418 25.7034 2
    endloop
  endfacet
  facet normal -0.290296 -0.956937 0
    outer loop
      vertex 25.6418 25.7034 2
      vertex 26.636 25.4018 10.6
      vertex 25.6418 25.7034 10.6
    endloop
  endfacet
  facet normal -0.290296 -0.956937 -0
    outer loop
      vertex 26.636 25.4018 10.6
      vertex 25.6418 25.7034 2
      vertex 26.636 25.4018 2
    endloop
  endfacet
  facet normal -0.995188 0.0979789 0
    outer loop
      vertex 22.37 30.6 2
      vertex 22.4718 31.634 10.6
      vertex 22.4718 31.634 2
    endloop
  endfacet
  facet normal -0.995188 0.0979789 0
    outer loop
      vertex 22.4718 31.634 10.6
      vertex 22.37 30.6 2
      vertex 22.37 30.6 10.6
    endloop
  endfacet
  facet normal -0.956937 -0.290296 0
    outer loop
      vertex 22.7734 28.5718 2
      vertex 22.4718 29.566 10.6
      vertex 22.4718 29.566 2
    endloop
  endfacet
  facet normal -0.956937 -0.290296 0
    outer loop
      vertex 22.4718 29.566 10.6
      vertex 22.7734 28.5718 2
      vertex 22.7734 28.5718 10.6
    endloop
  endfacet
  facet normal 0.0979789 0.995188 -0
    outer loop
      vertex 28.704 35.7982 2
      vertex 27.67 35.9 10.6
      vertex 28.704 35.7982 10.6
    endloop
  endfacet
  facet normal 0.0979789 0.995188 0
    outer loop
      vertex 27.67 35.9 10.6
      vertex 28.704 35.7982 2
      vertex 27.67 35.9 2
    endloop
  endfacet
  facet normal -0.471417 0.88191 0
    outer loop
      vertex 25.6418 35.4966 2
      vertex 24.7255 35.0068 10.6
      vertex 25.6418 35.4966 10.6
    endloop
  endfacet
  facet normal -0.471417 0.88191 0
    outer loop
      vertex 24.7255 35.0068 10.6
      vertex 25.6418 35.4966 2
      vertex 24.7255 35.0068 2
    endloop
  endfacet
  facet normal -0.634353 -0.773043 0
    outer loop
      vertex 23.9223 26.8523 2
      vertex 24.7255 26.1932 10.6
      vertex 23.9223 26.8523 10.6
    endloop
  endfacet
  facet normal -0.634353 -0.773043 -0
    outer loop
      vertex 24.7255 26.1932 10.6
      vertex 23.9223 26.8523 2
      vertex 24.7255 26.1932 2
    endloop
  endfacet
  facet normal -0.88191 -0.471417 0
    outer loop
      vertex 23.2632 27.6555 2
      vertex 22.7734 28.5718 10.6
      vertex 22.7734 28.5718 2
    endloop
  endfacet
  facet normal -0.88191 -0.471417 0
    outer loop
      vertex 22.7734 28.5718 10.6
      vertex 23.2632 27.6555 2
      vertex 23.2632 27.6555 10.6
    endloop
  endfacet
  facet normal -0.773043 -0.634353 0
    outer loop
      vertex 23.9223 26.8523 2
      vertex 23.2632 27.6555 10.6
      vertex 23.2632 27.6555 2
    endloop
  endfacet
  facet normal -0.773043 -0.634353 0
    outer loop
      vertex 23.2632 27.6555 10.6
      vertex 23.9223 26.8523 2
      vertex 23.9223 26.8523 10.6
    endloop
  endfacet
  facet normal -0.995188 -0.0979789 0
    outer loop
      vertex 22.4718 29.566 2
      vertex 22.37 30.6 10.6
      vertex 22.37 30.6 2
    endloop
  endfacet
  facet normal -0.995188 -0.0979789 0
    outer loop
      vertex 22.37 30.6 10.6
      vertex 22.4718 29.566 2
      vertex 22.4718 29.566 10.6
    endloop
  endfacet
  facet normal 0.634353 -0.773043 0
    outer loop
      vertex 30.6145 26.1932 2
      vertex 31.4177 26.8523 10.6
      vertex 30.6145 26.1932 10.6
    endloop
  endfacet
  facet normal 0.634353 -0.773043 0
    outer loop
      vertex 31.4177 26.8523 10.6
      vertex 30.6145 26.1932 2
      vertex 31.4177 26.8523 2
    endloop
  endfacet
  facet normal 0.773043 -0.634353 0
    outer loop
      vertex 31.4177 26.8523 10.6
      vertex 32.0768 27.6555 2
      vertex 32.0768 27.6555 10.6
    endloop
  endfacet
  facet normal 0.773043 -0.634353 0
    outer loop
      vertex 32.0768 27.6555 2
      vertex 31.4177 26.8523 10.6
      vertex 31.4177 26.8523 2
    endloop
  endfacet
  facet normal -0.0979789 -0.995188 0
    outer loop
      vertex 26.636 25.4018 2
      vertex 27.67 25.3 10.6
      vertex 26.636 25.4018 10.6
    endloop
  endfacet
  facet normal -0.0979789 -0.995188 -0
    outer loop
      vertex 27.67 25.3 10.6
      vertex 26.636 25.4018 2
      vertex 27.67 25.3 2
    endloop
  endfacet
  facet normal 0 0 1
    outer loop
      vertex 30.42 30.6 10.6
      vertex 32.97 30.6 10.6
      vertex 32.8682 31.634 10.6
    endloop
  endfacet
  facet normal 0 0 1
    outer loop
      vertex 30.3672 31.1365 10.6
      vertex 32.8682 31.634 10.6
      vertex 32.5666 32.6282 10.6
    endloop
  endfacet
  facet normal 0 0 1
    outer loop
      vertex 32.97 30.6 10.6
      vertex 30.42 30.6 10.6
      vertex 32.8682 29.566 10.6
    endloop
  endfacet
  facet normal 0 0 1
    outer loop
      vertex 30.2107 31.6524 10.6
      vertex 32.5666 32.6282 10.6
      vertex 32.0768 33.5445 10.6
    endloop
  endfacet
  facet normal -0 0 1
    outer loop
      vertex 30.3672 30.0635 10.6
      vertex 32.8682 29.566 10.6
      vertex 30.42 30.6 10.6
    endloop
  endfacet
  facet normal 0 0 1
    outer loop
      vertex 29.9565 32.1278 10.6
      vertex 32.0768 33.5445 10.6
      vertex 31.4177 34.3477 10.6
    endloop
  endfacet
  facet normal 0 0 1
    outer loop
      vertex 32.8682 29.566 10.6
      vertex 30.3672 30.0635 10.6
      vertex 32.5666 28.5718 10.6
    endloop
  endfacet
  facet normal 0 0 1
    outer loop
      vertex 29.6145 32.5445 10.6
      vertex 31.4177 34.3477 10.6
      vertex 30.6145 35.0068 10.6
    endloop
  endfacet
  facet normal -0 0 1
    outer loop
      vertex 30.2107 29.5476 10.6
      vertex 32.5666 28.5718 10.6
      vertex 30.3672 30.0635 10.6
    endloop
  endfacet
  facet normal 0 0 1
    outer loop
      vertex 32.5666 28.5718 10.6
      vertex 30.2107 29.5476 10.6
      vertex 32.0768 27.6555 10.6
    endloop
  endfacet
  facet normal 0 0 1
    outer loop
      vertex 32.8682 31.634 10.6
      vertex 30.3672 31.1365 10.6
      vertex 30.42 30.6 10.6
    endloop
  endfacet
  facet normal 0 0 1
    outer loop
      vertex 32.5666 32.6282 10.6
      vertex 30.2107 31.6524 10.6
      vertex 30.3672 31.1365 10.6
    endloop
  endfacet
  facet normal 0 0 1
    outer loop
      vertex 32.0768 33.5445 10.6
      vertex 29.9565 32.1278 10.6
      vertex 30.2107 31.6524 10.6
    endloop
  endfacet
  facet normal 0 0 1
    outer loop
      vertex 29.1978 32.8865 10.6
      vertex 30.6145 35.0068 10.6
      vertex 29.6982 35.4966 10.6
    endloop
  endfacet
  facet normal 0 0 1
    outer loop
      vertex 31.4177 34.3477 10.6
      vertex 29.6145 32.5445 10.6
      vertex 29.9565 32.1278 10.6
    endloop
  endfacet
  facet normal 0 0 1
    outer loop
      vertex 30.6145 35.0068 10.6
      vertex 29.1978 32.8865 10.6
      vertex 29.6145 32.5445 10.6
    endloop
  endfacet
  facet normal 0 0 1
    outer loop
      vertex 29.6982 35.4966 10.6
      vertex 28.7224 33.1407 10.6
      vertex 29.1978 32.8865 10.6
    endloop
  endfacet
  facet normal 0 0 1
    outer loop
      vertex 28.704 35.7982 10.6
      vertex 28.7224 33.1407 10.6
      vertex 29.6982 35.4966 10.6
    endloop
  endfacet
  facet normal 0 0 1
    outer loop
      vertex 28.704 35.7982 10.6
      vertex 28.2065 33.2972 10.6
      vertex 28.7224 33.1407 10.6
    endloop
  endfacet
  facet normal 0 0 1
    outer loop
      vertex 27.67 35.9 10.6
      vertex 28.2065 33.2972 10.6
      vertex 28.704 35.7982 10.6
    endloop
  endfacet
  facet normal 0 0 1
    outer loop
      vertex 27.67 35.9 10.6
      vertex 27.67 33.35 10.6
      vertex 28.2065 33.2972 10.6
    endloop
  endfacet
  facet normal 0 0 1
    outer loop
      vertex 27.67 35.9 10.6
      vertex 27.1335 33.2972 10.6
      vertex 27.67 33.35 10.6
    endloop
  endfacet
  facet normal -0 0 1
    outer loop
      vertex 26.636 35.7982 10.6
      vertex 27.1335 33.2972 10.6
      vertex 27.67 35.9 10.6
    endloop
  endfacet
  facet normal 0 0 1
    outer loop
      vertex 26.636 35.7982 10.6
      vertex 26.6176 33.1407 10.6
      vertex 27.1335 33.2972 10.6
    endloop
  endfacet
  facet normal -0 0 1
    outer loop
      vertex 25.6418 35.4966 10.6
      vertex 26.6176 33.1407 10.6
      vertex 26.636 35.7982 10.6
    endloop
  endfacet
  facet normal 0 0 1
    outer loop
      vertex 26.6176 33.1407 10.6
      vertex 25.6418 35.4966 10.6
      vertex 26.1422 32.8865 10.6
    endloop
  endfacet
  facet normal -0 0 1
    outer loop
      vertex 24.7255 35.0068 10.6
      vertex 26.1422 32.8865 10.6
      vertex 25.6418 35.4966 10.6
    endloop
  endfacet
  facet normal 0 0 1
    outer loop
      vertex 26.1422 32.8865 10.6
      vertex 24.7255 35.0068 10.6
      vertex 25.7255 32.5445 10.6
    endloop
  endfacet
  facet normal -0 0 1
    outer loop
      vertex 23.9223 34.3477 10.6
      vertex 25.7255 32.5445 10.6
      vertex 24.7255 35.0068 10.6
    endloop
  endfacet
  facet normal 0 0 1
    outer loop
      vertex 25.7255 32.5445 10.6
      vertex 23.9223 34.3477 10.6
      vertex 25.3835 32.1278 10.6
    endloop
  endfacet
  facet normal 0 0 1
    outer loop
      vertex 25.3835 32.1278 10.6
      vertex 23.2632 33.5445 10.6
      vertex 25.1293 31.6524 10.6
    endloop
  endfacet
  facet normal -0 0 1
    outer loop
      vertex 23.2632 33.5445 10.6
      vertex 25.3835 32.1278 10.6
      vertex 23.9223 34.3477 10.6
    endloop
  endfacet
  facet normal -0 0 1
    outer loop
      vertex 29.9565 29.0722 10.6
      vertex 32.0768 27.6555 10.6
      vertex 30.2107 29.5476 10.6
    endloop
  endfacet
  facet normal 0 0 1
    outer loop
      vertex 32.0768 27.6555 10.6
      vertex 29.9565 29.0722 10.6
      vertex 31.4177 26.8523 10.6
    endloop
  endfacet
  facet normal -0 0 1
    outer loop
      vertex 29.6145 28.6555 10.6
      vertex 31.4177 26.8523 10.6
      vertex 29.9565 29.0722 10.6
    endloop
  endfacet
  facet normal 0 0 1
    outer loop
      vertex 31.4177 26.8523 10.6
      vertex 29.6145 28.6555 10.6
      vertex 30.6145 26.1932 10.6
    endloop
  endfacet
  facet normal -0 0 1
    outer loop
      vertex 29.1978 28.3135 10.6
      vertex 30.6145 26.1932 10.6
      vertex 29.6145 28.6555 10.6
    endloop
  endfacet
  facet normal 0 0 1
    outer loop
      vertex 30.6145 26.1932 10.6
      vertex 29.1978 28.3135 10.6
      vertex 29.6982 25.7034 10.6
    endloop
  endfacet
  facet normal -0 0 1
    outer loop
      vertex 28.7224 28.0593 10.6
      vertex 29.6982 25.7034 10.6
      vertex 29.1978 28.3135 10.6
    endloop
  endfacet
  facet normal 0 0 1
    outer loop
      vertex 28.7224 28.0593 10.6
      vertex 28.704 25.4018 10.6
      vertex 29.6982 25.7034 10.6
    endloop
  endfacet
  facet normal -0 0 1
    outer loop
      vertex 28.2065 27.9028 10.6
      vertex 28.704 25.4018 10.6
      vertex 28.7224 28.0593 10.6
    endloop
  endfacet
  facet normal -0 0 1
    outer loop
      vertex 27.67 27.85 10.6
      vertex 28.704 25.4018 10.6
      vertex 28.2065 27.9028 10.6
    endloop
  endfacet
  facet normal 0 0 1
    outer loop
      vertex 27.67 27.85 10.6
      vertex 27.67 25.3 10.6
      vertex 28.704 25.4018 10.6
    endloop
  endfacet
  facet normal 0 0 1
    outer loop
      vertex 27.1335 27.9028 10.6
      vertex 27.67 25.3 10.6
      vertex 27.67 27.85 10.6
    endloop
  endfacet
  facet normal 0 0 1
    outer loop
      vertex 27.1335 27.9028 10.6
      vertex 26.636 25.4018 10.6
      vertex 27.67 25.3 10.6
    endloop
  endfacet
  facet normal 0 0 1
    outer loop
      vertex 26.6176 28.0593 10.6
      vertex 26.636 25.4018 10.6
      vertex 27.1335 27.9028 10.6
    endloop
  endfacet
  facet normal 0 0 1
    outer loop
      vertex 25.6418 25.7034 10.6
      vertex 26.6176 28.0593 10.6
      vertex 26.1422 28.3135 10.6
    endloop
  endfacet
  facet normal 0 0 1
    outer loop
      vertex 24.7255 26.1932 10.6
      vertex 26.1422 28.3135 10.6
      vertex 25.7255 28.6555 10.6
    endloop
  endfacet
  facet normal 0 0 1
    outer loop
      vertex 26.6176 28.0593 10.6
      vertex 25.6418 25.7034 10.6
      vertex 26.636 25.4018 10.6
    endloop
  endfacet
  facet normal 0 0 1
    outer loop
      vertex 23.9223 26.8523 10.6
      vertex 25.7255 28.6555 10.6
      vertex 25.3835 29.0722 10.6
    endloop
  endfacet
  facet normal 0 0 1
    outer loop
      vertex 23.2632 27.6555 10.6
      vertex 25.3835 29.0722 10.6
      vertex 25.1293 29.5476 10.6
    endloop
  endfacet
  facet normal 0 0 1
    outer loop
      vertex 22.7734 28.5718 10.6
      vertex 25.1293 29.5476 10.6
      vertex 24.9728 30.0635 10.6
    endloop
  endfacet
  facet normal 0 0 1
    outer loop
      vertex 26.1422 28.3135 10.6
      vertex 24.7255 26.1932 10.6
      vertex 25.6418 25.7034 10.6
    endloop
  endfacet
  facet normal 0 0 1
    outer loop
      vertex 22.4718 29.566 10.6
      vertex 24.9728 30.0635 10.6
      vertex 24.92 30.6 10.6
    endloop
  endfacet
  facet normal -0 0 1
    outer loop
      vertex 22.7734 32.6282 10.6
      vertex 25.1293 31.6524 10.6
      vertex 23.2632 33.5445 10.6
    endloop
  endfacet
  facet normal 0 0 1
    outer loop
      vertex 25.1293 31.6524 10.6
      vertex 22.7734 32.6282 10.6
      vertex 24.9728 31.1365 10.6
    endloop
  endfacet
  facet normal 0 0 1
    outer loop
      vertex 25.7255 28.6555 10.6
      vertex 23.9223 26.8523 10.6
      vertex 24.7255 26.1932 10.6
    endloop
  endfacet
  facet normal -0 0 1
    outer loop
      vertex 22.4718 31.634 10.6
      vertex 24.9728 31.1365 10.6
      vertex 22.7734 32.6282 10.6
    endloop
  endfacet
  facet normal 0 0 1
    outer loop
      vertex 25.3835 29.0722 10.6
      vertex 23.2632 27.6555 10.6
      vertex 23.9223 26.8523 10.6
    endloop
  endfacet
  facet normal 0 0 1
    outer loop
      vertex 24.9728 31.1365 10.6
      vertex 22.4718 31.634 10.6
      vertex 24.92 30.6 10.6
    endloop
  endfacet
  facet normal 0 0 1
    outer loop
      vertex 25.1293 29.5476 10.6
      vertex 22.7734 28.5718 10.6
      vertex 23.2632 27.6555 10.6
    endloop
  endfacet
  facet normal 0 0 1
    outer loop
      vertex 22.37 30.6 10.6
      vertex 24.92 30.6 10.6
      vertex 22.4718 31.634 10.6
    endloop
  endfacet
  facet normal 0 0 1
    outer loop
      vertex 24.9728 30.0635 10.6
      vertex 22.4718 29.566 10.6
      vertex 22.7734 28.5718 10.6
    endloop
  endfacet
  facet normal 0 0 1
    outer loop
      vertex 24.92 30.6 10.6
      vertex 22.37 30.6 10.6
      vertex 22.4718 29.566 10.6
    endloop
  endfacet
  facet normal 0 -1 0
    outer loop
      vertex 2 8 0
      vertex 53.34 8 1
      vertex 2 8 1
    endloop
  endfacet
  facet normal 0 -1 -0
    outer loop
      vertex 53.34 8 1
      vertex 2 8 0
      vertex 53.34 8 0
    endloop
  endfacet
  facet normal -1 0 0
    outer loop
      vertex 1 41 0
      vertex 1 43 9.6
      vertex 1 43 0
    endloop
  endfacet
  facet normal -1 -0 0
    outer loop
      vertex 1 43 9.6
      vertex 1 41 0
      vertex 1 41 9.6
    endloop
  endfacet
  facet normal 0 -1 0
    outer loop
      vertex 0 43 0
      vertex 1 43 9.6
      vertex 0 43 9.6
    endloop
  endfacet
  facet normal 0 -1 -0
    outer loop
      vertex 1 43 9.6
      vertex 0 43 0
      vertex 1 43 0
    endloop
  endfacet
  facet normal 0 1 -0
    outer loop
      vertex 1 41 0
      vertex 0 41 9.6
      vertex 1 41 9.6
    endloop
  endfacet
  facet normal 0 1 0
    outer loop
      vertex 0 41 9.6
      vertex 1 41 0
      vertex 0 41 0
    endloop
  endfacet
  facet normal -1 0 0
    outer loop
      vertex 1 45 0
      vertex 1 47 9.6
      vertex 1 47 0
    endloop
  endfacet
  facet normal -1 -0 0
    outer loop
      vertex 1 47 9.6
      vertex 1 45 0
      vertex 1 45 9.6
    endloop
  endfacet
  facet normal 0 -1 0
    outer loop
      vertex 0 47 0
      vertex 1 47 9.6
      vertex 0 47 9.6
    endloop
  endfacet
  facet normal 0 -1 -0
    outer loop
      vertex 1 47 9.6
      vertex 0 47 0
      vertex 1 47 0
    endloop
  endfacet
  facet normal 0 1 -0
    outer loop
      vertex 1 45 0
      vertex 0 45 9.6
      vertex 1 45 9.6
    endloop
  endfacet
  facet normal 0 1 0
    outer loop
      vertex 0 45 9.6
      vertex 1 45 0
      vertex 0 45 0
    endloop
  endfacet
  facet normal -1 0 0
    outer loop
      vertex 1 49 0
      vertex 1 51 9.6
      vertex 1 51 0
    endloop
  endfacet
  facet normal -1 -0 0
    outer loop
      vertex 1 51 9.6
      vertex 1 49 0
      vertex 1 49 9.6
    endloop
  endfacet
  facet normal 0 -1 0
    outer loop
      vertex 0 51 0
      vertex 1 51 9.6
      vertex 0 51 9.6
    endloop
  endfacet
  facet normal 0 -1 -0
    outer loop
      vertex 1 51 9.6
      vertex 0 51 0
      vertex 1 51 0
    endloop
  endfacet
  facet normal 0 1 -0
    outer loop
      vertex 1 49 0
      vertex 0 49 9.6
      vertex 1 49 9.6
    endloop
  endfacet
  facet normal 0 1 0
    outer loop
      vertex 0 49 9.6
      vertex 1 49 0
      vertex 0 49 0
    endloop
  endfacet
  facet normal 1 -0 0
    outer loop
      vertex 54.34 41 9.6
      vertex 54.34 43 0
      vertex 54.34 43 9.6
    endloop
  endfacet
  facet normal 1 0 0
    outer loop
      vertex 54.34 43 0
      vertex 54.34 41 9.6
      vertex 54.34 41 0
    endloop
  endfacet
  facet normal 0 -1 0
    outer loop
      vertex 54.34 43 0
      vertex 55.34 43 9.6
      vertex 54.34 43 9.6
    endloop
  endfacet
  facet normal 0 -1 -0
    outer loop
      vertex 55.34 43 9.6
      vertex 54.34 43 0
      vertex 55.34 43 0
    endloop
  endfacet
  facet normal 0 1 -0
    outer loop
      vertex 55.34 41 0
      vertex 54.34 41 9.6
      vertex 55.34 41 9.6
    endloop
  endfacet
  facet normal 0 1 0
    outer loop
      vertex 54.34 41 9.6
      vertex 55.34 41 0
      vertex 54.34 41 0
    endloop
  endfacet
  facet normal 1 -0 0
    outer loop
      vertex 54.34 45 9.6
      vertex 54.34 47 0
      vertex 54.34 47 9.6
    endloop
  endfacet
  facet normal 1 0 0
    outer loop
      vertex 54.34 47 0
      vertex 54.34 45 9.6
      vertex 54.34 45 0
    endloop
  endfacet
  facet normal 0 -1 0
    outer loop
      vertex 54.34 47 0
      vertex 55.34 47 9.6
      vertex 54.34 47 9.6
    endloop
  endfacet
  facet normal 0 -1 -0
    outer loop
      vertex 55.34 47 9.6
      vertex 54.34 47 0
      vertex 55.34 47 0
    endloop
  endfacet
  facet normal 0 1 -0
    outer loop
      vertex 55.34 45 0
      vertex 54.34 45 9.6
      vertex 55.34 45 9.6
    endloop
  endfacet
  facet normal 0 1 0
    outer loop
      vertex 54.34 45 9.6
      vertex 55.34 45 0
      vertex 54.34 45 0
    endloop
  endfacet
  facet normal 1 -0 0
    outer loop
      vertex 54.34 49 9.6
      vertex 54.34 51 0
      vertex 54.34 51 9.6
    endloop
  endfacet
  facet normal 1 0 0
    outer loop
      vertex 54.34 51 0
      vertex 54.34 49 9.6
      vertex 54.34 49 0
    endloop
  endfacet
  facet normal 0 -1 0
    outer loop
      vertex 54.34 51 0
      vertex 55.34 51 9.6
      vertex 54.34 51 9.6
    endloop
  endfacet
  facet normal 0 -1 -0
    outer loop
      vertex 55.34 51 9.6
      vertex 54.34 51 0
      vertex 55.34 51 0
    endloop
  endfacet
  facet normal 0 1 -0
    outer loop
      vertex 55.34 49 0
      vertex 54.34 49 9.6
      vertex 55.34 49 9.6
    endloop
  endfacet
  facet normal 0 1 0
    outer loop
      vertex 54.34 49 9.6
      vertex 55.34 49 0
      vertex 54.34 49 0
    endloop
  endfacet
  facet normal -1 0 0
    outer loop
      vertex 51.34 55.34 0
      vertex 51.34 54.34 1
      vertex 51.34 55.34 9.6
    endloop
  endfacet
  facet normal -1 0 0
    outer loop
      vertex 51.34 18 0
      vertex 51.34 54.34 1
      vertex 51.34 55.34 0
    endloop
  endfacet
  facet normal -1 -0 0
    outer loop
      vertex 51.34 54.34 1
      vertex 51.34 18 0
      vertex 51.34 18 1
    endloop
  endfacet
  facet normal -1 -0 0
    outer loop
      vertex 51.34 55.34 9.6
      vertex 51.34 54.34 1
      vertex 51.34 54.34 9.6
    endloop
  endfacet
  facet normal 1 0 0
    outer loop
      vertex 4 54.34 1
      vertex 4 55.34 9.6
      vertex 4 54.34 9.6
    endloop
  endfacet
  facet normal 1 0 0
    outer loop
      vertex 4 55.34 9.6
      vertex 4 54.34 1
      vertex 4 55.34 0
    endloop
  endfacet
  facet normal 1 0 0
    outer loop
      vertex 4 18 0
      vertex 4 54.34 1
      vertex 4 18 1
    endloop
  endfacet
  facet normal 1 0 0
    outer loop
      vertex 4 54.34 1
      vertex 4 18 0
      vertex 4 55.34 0
    endloop
  endfacet
  facet normal 0 1 -0
    outer loop
      vertex 51.34 54.34 1
      vertex 4 54.34 9.6
      vertex 51.34 54.34 9.6
    endloop
  endfacet
  facet normal 0 1 0
    outer loop
      vertex 4 54.34 9.6
      vertex 51.34 54.34 1
      vertex 4 54.34 1
    endloop
  endfacet
  facet normal 0 0 -1
    outer loop
      vertex 4 18 1
      vertex 51.34 54.34 1
      vertex 51.34 18 1
    endloop
  endfacet
  facet normal -0 0 -1
    outer loop
      vertex 51.34 54.34 1
      vertex 4 18 1
      vertex 4 54.34 1
    endloop
  endfacet
  facet normal 0 1 -0
    outer loop
      vertex 51.34 18 0
      vertex 4 18 1
      vertex 51.34 18 1
    endloop
  endfacet
  facet normal 0 1 0
    outer loop
      vertex 4 18 1
      vertex 51.34 18 0
      vertex 4 18 0
    endloop
  endfacet
  facet normal -0.0981049 -0.995176 0
    outer loop
      vertex 27.67 31.9 3.6
      vertex 27.9236 31.875 8.6
      vertex 27.67 31.9 8.6
    endloop
  endfacet
  facet normal -0.0981049 -0.995176 -0
    outer loop
      vertex 27.9236 31.875 8.6
      vertex 27.67 31.9 3.6
      vertex 27.9236 31.875 3.6
    endloop
  endfacet
  facet normal -0.956925 -0.290334 0
    outer loop
      vertex 28.945 30.8536 3.6
      vertex 28.871 31.0975 8.6
      vertex 28.871 31.0975 3.6
    endloop
  endfacet
  facet normal -0.956925 -0.290334 0
    outer loop
      vertex 28.871 31.0975 8.6
      vertex 28.945 30.8536 3.6
      vertex 28.945 30.8536 8.6
    endloop
  endfacet
  facet normal -0.995176 -0.0981049 0
    outer loop
      vertex 28.97 30.6 3.6
      vertex 28.945 30.8536 8.6
      vertex 28.945 30.8536 3.6
    endloop
  endfacet
  facet normal -0.995176 -0.0981049 0
    outer loop
      vertex 28.945 30.8536 8.6
      vertex 28.97 30.6 3.6
      vertex 28.97 30.6 8.6
    endloop
  endfacet
  facet normal -0.634455 0.77296 0
    outer loop
      vertex 28.5892 29.6808 3.6
      vertex 28.3922 29.5191 8.6
      vertex 28.5892 29.6808 8.6
    endloop
  endfacet
  facet normal -0.634455 0.77296 0
    outer loop
      vertex 28.3922 29.5191 8.6
      vertex 28.5892 29.6808 3.6
      vertex 28.3922 29.5191 3.6
    endloop
  endfacet
  facet normal -0.290334 0.956925 0
    outer loop
      vertex 28.1675 29.399 3.6
      vertex 27.9236 29.325 8.6
      vertex 28.1675 29.399 8.6
    endloop
  endfacet
  facet normal -0.290334 0.956925 0
    outer loop
      vertex 27.9236 29.325 8.6
      vertex 28.1675 29.399 3.6
      vertex 27.9236 29.325 3.6
    endloop
  endfacet
  facet normal -0.0981049 0.995176 0
    outer loop
      vertex 27.9236 29.325 3.6
      vertex 27.67 29.3 8.6
      vertex 27.9236 29.325 8.6
    endloop
  endfacet
  facet normal -0.0981049 0.995176 0
    outer loop
      vertex 27.67 29.3 8.6
      vertex 27.9236 29.325 3.6
      vertex 27.67 29.3 3.6
    endloop
  endfacet
  facet normal 0.995176 -0.0981049 0
    outer loop
      vertex 26.37 30.6 8.6
      vertex 26.395 30.8536 3.6
      vertex 26.395 30.8536 8.6
    endloop
  endfacet
  facet normal 0.995176 -0.0981049 0
    outer loop
      vertex 26.395 30.8536 3.6
      vertex 26.37 30.6 8.6
      vertex 26.37 30.6 3.6
    endloop
  endfacet
  facet normal 0.634455 0.77296 -0
    outer loop
      vertex 26.9478 29.5191 3.6
      vertex 26.7508 29.6808 8.6
      vertex 26.9478 29.5191 8.6
    endloop
  endfacet
  facet normal 0.634455 0.77296 0
    outer loop
      vertex 26.7508 29.6808 8.6
      vertex 26.9478 29.5191 3.6
      vertex 26.7508 29.6808 3.6
    endloop
  endfacet
  facet normal -0.290334 -0.956925 0
    outer loop
      vertex 27.9236 31.875 3.6
      vertex 28.1675 31.801 8.6
      vertex 27.9236 31.875 8.6
    endloop
  endfacet
  facet normal -0.290334 -0.956925 -0
    outer loop
      vertex 28.1675 31.801 8.6
      vertex 27.9236 31.875 3.6
      vertex 28.1675 31.801 3.6
    endloop
  endfacet
  facet normal 0.634455 -0.77296 0
    outer loop
      vertex 26.7508 31.5192 3.6
      vertex 26.9478 31.6809 8.6
      vertex 26.7508 31.5192 8.6
    endloop
  endfacet
  facet normal 0.634455 -0.77296 0
    outer loop
      vertex 26.9478 31.6809 8.6
      vertex 26.7508 31.5192 3.6
      vertex 26.9478 31.6809 3.6
    endloop
  endfacet
  facet normal -0.956925 0.290334 0
    outer loop
      vertex 28.871 30.1025 3.6
      vertex 28.945 30.3464 8.6
      vertex 28.945 30.3464 3.6
    endloop
  endfacet
  facet normal -0.956925 0.290334 0
    outer loop
      vertex 28.945 30.3464 8.6
      vertex 28.871 30.1025 3.6
      vertex 28.871 30.1025 8.6
    endloop
  endfacet
  facet normal 0.77296 -0.634455 0
    outer loop
      vertex 26.5891 31.3222 8.6
      vertex 26.7508 31.5192 3.6
      vertex 26.7508 31.5192 8.6
    endloop
  endfacet
  facet normal 0.77296 -0.634455 0
    outer loop
      vertex 26.7508 31.5192 3.6
      vertex 26.5891 31.3222 8.6
      vertex 26.5891 31.3222 3.6
    endloop
  endfacet
  facet normal 0.881929 0.471383 0
    outer loop
      vertex 26.5891 29.8778 8.6
      vertex 26.469 30.1025 3.6
      vertex 26.469 30.1025 8.6
    endloop
  endfacet
  facet normal 0.881929 0.471383 0
    outer loop
      vertex 26.469 30.1025 3.6
      vertex 26.5891 29.8778 8.6
      vertex 26.5891 29.8778 3.6
    endloop
  endfacet
  facet normal 0 0 1
    outer loop
      vertex 28.945 30.8536 3.6
      vertex 28.945 30.3464 3.6
      vertex 28.97 30.6 3.6
    endloop
  endfacet
  facet normal 0 0 1
    outer loop
      vertex 28.871 31.0975 3.6
      vertex 28.945 30.3464 3.6
      vertex 28.945 30.8536 3.6
    endloop
  endfacet
  facet normal 0 0 1
    outer loop
      vertex 28.871 31.0975 3.6
      vertex 28.871 30.1025 3.6
      vertex 28.945 30.3464 3.6
    endloop
  endfacet
  facet normal 0 0 1
    outer loop
      vertex 28.7509 31.3222 3.6
      vertex 28.871 30.1025 3.6
      vertex 28.871 31.0975 3.6
    endloop
  endfacet
  facet normal 0 0 1
    outer loop
      vertex 28.7509 31.3222 3.6
      vertex 28.7509 29.8778 3.6
      vertex 28.871 30.1025 3.6
    endloop
  endfacet
  facet normal 0 0 1
    outer loop
      vertex 28.5892 31.5192 3.6
      vertex 28.7509 29.8778 3.6
      vertex 28.7509 31.3222 3.6
    endloop
  endfacet
  facet normal 0 0 1
    outer loop
      vertex 28.5892 31.5192 3.6
      vertex 28.5892 29.6808 3.6
      vertex 28.7509 29.8778 3.6
    endloop
  endfacet
  facet normal 0 0 1
    outer loop
      vertex 28.3922 31.6809 3.6
      vertex 28.5892 29.6808 3.6
      vertex 28.5892 31.5192 3.6
    endloop
  endfacet
  facet normal 0 0 1
    outer loop
      vertex 28.3922 31.6809 3.6
      vertex 28.3922 29.5191 3.6
      vertex 28.5892 29.6808 3.6
    endloop
  endfacet
  facet normal 0 0 1
    outer loop
      vertex 28.1675 31.801 3.6
      vertex 28.3922 29.5191 3.6
      vertex 28.3922 31.6809 3.6
    endloop
  endfacet
  facet normal 0 0 1
    outer loop
      vertex 28.1675 31.801 3.6
      vertex 28.1675 29.399 3.6
      vertex 28.3922 29.5191 3.6
    endloop
  endfacet
  facet normal 0 0 1
    outer loop
      vertex 27.9236 31.875 3.6
      vertex 28.1675 29.399 3.6
      vertex 28.1675 31.801 3.6
    endloop
  endfacet
  facet normal 0 0 1
    outer loop
      vertex 27.9236 31.875 3.6
      vertex 27.9236 29.325 3.6
      vertex 28.1675 29.399 3.6
    endloop
  endfacet
  facet normal 0 0 1
    outer loop
      vertex 27.67 31.9 3.6
      vertex 27.9236 29.325 3.6
      vertex 27.9236 31.875 3.6
    endloop
  endfacet
  facet normal 0 0 1
    outer loop
      vertex 27.67 31.9 3.6
      vertex 27.67 29.3 3.6
      vertex 27.9236 29.325 3.6
    endloop
  endfacet
  facet normal -0 0 1
    outer loop
      vertex 27.4164 31.875 3.6
      vertex 27.67 29.3 3.6
      vertex 27.67 31.9 3.6
    endloop
  endfacet
  facet normal 0 0 1
    outer loop
      vertex 27.4164 31.875 3.6
      vertex 27.4164 29.325 3.6
      vertex 27.67 29.3 3.6
    endloop
  endfacet
  facet normal -0 0 1
    outer loop
      vertex 27.1725 31.801 3.6
      vertex 27.4164 29.325 3.6
      vertex 27.4164 31.875 3.6
    endloop
  endfacet
  facet normal 0 0 1
    outer loop
      vertex 27.1725 31.801 3.6
      vertex 27.1725 29.399 3.6
      vertex 27.4164 29.325 3.6
    endloop
  endfacet
  facet normal -0 0 1
    outer loop
      vertex 26.9478 31.6809 3.6
      vertex 27.1725 29.399 3.6
      vertex 27.1725 31.801 3.6
    endloop
  endfacet
  facet normal 0 0 1
    outer loop
      vertex 26.9478 31.6809 3.6
      vertex 26.9478 29.5191 3.6
      vertex 27.1725 29.399 3.6
    endloop
  endfacet
  facet normal -0 0 1
    outer loop
      vertex 26.7508 31.5192 3.6
      vertex 26.9478 29.5191 3.6
      vertex 26.9478 31.6809 3.6
    endloop
  endfacet
  facet normal 0 0 1
    outer loop
      vertex 26.7508 31.5192 3.6
      vertex 26.7508 29.6808 3.6
      vertex 26.9478 29.5191 3.6
    endloop
  endfacet
  facet normal -0 0 1
    outer loop
      vertex 26.5891 31.3222 3.6
      vertex 26.7508 29.6808 3.6
      vertex 26.7508 31.5192 3.6
    endloop
  endfacet
  facet normal 0 0 1
    outer loop
      vertex 26.5891 31.3222 3.6
      vertex 26.5891 29.8778 3.6
      vertex 26.7508 29.6808 3.6
    endloop
  endfacet
  facet normal -0 0 1
    outer loop
      vertex 26.469 31.0975 3.6
      vertex 26.5891 29.8778 3.6
      vertex 26.5891 31.3222 3.6
    endloop
  endfacet
  facet normal 0 0 1
    outer loop
      vertex 26.469 31.0975 3.6
      vertex 26.469 30.1025 3.6
      vertex 26.5891 29.8778 3.6
    endloop
  endfacet
  facet normal -0 0 1
    outer loop
      vertex 26.395 30.8536 3.6
      vertex 26.469 30.1025 3.6
      vertex 26.469 31.0975 3.6
    endloop
  endfacet
  facet normal 0 0 1
    outer loop
      vertex 26.395 30.8536 3.6
      vertex 26.395 30.3464 3.6
      vertex 26.469 30.1025 3.6
    endloop
  endfacet
  facet normal 0 -0 1
    outer loop
      vertex 26.395 30.3464 3.6
      vertex 26.395 30.8536 3.6
      vertex 26.37 30.6 3.6
    endloop
  endfacet
  facet normal 0.471383 -0.881929 0
    outer loop
      vertex 26.9478 31.6809 3.6
      vertex 27.1725 31.801 8.6
      vertex 26.9478 31.6809 8.6
    endloop
  endfacet
  facet normal 0.471383 -0.881929 0
    outer loop
      vertex 27.1725 31.801 8.6
      vertex 26.9478 31.6809 3.6
      vertex 27.1725 31.801 3.6
    endloop
  endfacet
  facet normal -0.634455 -0.77296 0
    outer loop
      vertex 28.3922 31.6809 3.6
      vertex 28.5892 31.5192 8.6
      vertex 28.3922 31.6809 8.6
    endloop
  endfacet
  facet normal -0.634455 -0.77296 -0
    outer loop
      vertex 28.5892 31.5192 8.6
      vertex 28.3922 31.6809 3.6
      vertex 28.5892 31.5192 3.6
    endloop
  endfacet
  facet normal -0.471383 -0.881929 0
    outer loop
      vertex 28.1675 31.801 3.6
      vertex 28.3922 31.6809 8.6
      vertex 28.1675 31.801 8.6
    endloop
  endfacet
  facet normal -0.471383 -0.881929 -0
    outer loop
      vertex 28.3922 31.6809 8.6
      vertex 28.1675 31.801 3.6
      vertex 28.3922 31.6809 3.6
    endloop
  endfacet
  facet normal -0.77296 -0.634455 0
    outer loop
      vertex 28.7509 31.3222 3.6
      vertex 28.5892 31.5192 8.6
      vertex 28.5892 31.5192 3.6
    endloop
  endfacet
  facet normal -0.77296 -0.634455 0
    outer loop
      vertex 28.5892 31.5192 8.6
      vertex 28.7509 31.3222 3.6
      vertex 28.7509 31.3222 8.6
    endloop
  endfacet
  facet normal -0.881929 0.471383 0
    outer loop
      vertex 28.7509 29.8778 3.6
      vertex 28.871 30.1025 8.6
      vertex 28.871 30.1025 3.6
    endloop
  endfacet
  facet normal -0.881929 0.471383 0
    outer loop
      vertex 28.871 30.1025 8.6
      vertex 28.7509 29.8778 3.6
      vertex 28.7509 29.8778 8.6
    endloop
  endfacet
  facet normal -0.77296 0.634455 0
    outer loop
      vertex 28.5892 29.6808 3.6
      vertex 28.7509 29.8778 8.6
      vertex 28.7509 29.8778 3.6
    endloop
  endfacet
  facet normal -0.77296 0.634455 0
    outer loop
      vertex 28.7509 29.8778 8.6
      vertex 28.5892 29.6808 3.6
      vertex 28.5892 29.6808 8.6
    endloop
  endfacet
  facet normal -0.471383 0.881929 0
    outer loop
      vertex 28.3922 29.5191 3.6
      vertex 28.1675 29.399 8.6
      vertex 28.3922 29.5191 8.6
    endloop
  endfacet
  facet normal -0.471383 0.881929 0
    outer loop
      vertex 28.1675 29.399 8.6
      vertex 28.3922 29.5191 3.6
      vertex 28.1675 29.399 3.6
    endloop
  endfacet
  facet normal 0.956925 -0.290334 0
    outer loop
      vertex 26.395 30.8536 8.6
      vertex 26.469 31.0975 3.6
      vertex 26.469 31.0975 8.6
    endloop
  endfacet
  facet normal 0.956925 -0.290334 0
    outer loop
      vertex 26.469 31.0975 3.6
      vertex 26.395 30.8536 8.6
      vertex 26.395 30.8536 3.6
    endloop
  endfacet
  facet normal -0.995176 0.0981049 0
    outer loop
      vertex 28.945 30.3464 3.6
      vertex 28.97 30.6 8.6
      vertex 28.97 30.6 3.6
    endloop
  endfacet
  facet normal -0.995176 0.0981049 0
    outer loop
      vertex 28.97 30.6 8.6
      vertex 28.945 30.3464 3.6
      vertex 28.945 30.3464 8.6
    endloop
  endfacet
  facet normal -0.881929 -0.471383 0
    outer loop
      vertex 28.871 31.0975 3.6
      vertex 28.7509 31.3222 8.6
      vertex 28.7509 31.3222 3.6
    endloop
  endfacet
  facet normal -0.881929 -0.471383 0
    outer loop
      vertex 28.7509 31.3222 8.6
      vertex 28.871 31.0975 3.6
      vertex 28.871 31.0975 8.6
    endloop
  endfacet
  facet normal 0.290334 -0.956925 0
    outer loop
      vertex 27.1725 31.801 3.6
      vertex 27.4164 31.875 8.6
      vertex 27.1725 31.801 8.6
    endloop
  endfacet
  facet normal 0.290334 -0.956925 0
    outer loop
      vertex 27.4164 31.875 8.6
      vertex 27.1725 31.801 3.6
      vertex 27.4164 31.875 3.6
    endloop
  endfacet
  facet normal 0.0981049 -0.995176 0
    outer loop
      vertex 27.4164 31.875 3.6
      vertex 27.67 31.9 8.6
      vertex 27.4164 31.875 8.6
    endloop
  endfacet
  facet normal 0.0981049 -0.995176 0
    outer loop
      vertex 27.67 31.9 8.6
      vertex 27.4164 31.875 3.6
      vertex 27.67 31.9 3.6
    endloop
  endfacet
  facet normal 0.881929 -0.471383 0
    outer loop
      vertex 26.469 31.0975 8.6
      vertex 26.5891 31.3222 3.6
      vertex 26.5891 31.3222 8.6
    endloop
  endfacet
  facet normal 0.881929 -0.471383 0
    outer loop
      vertex 26.5891 31.3222 3.6
      vertex 26.469 31.0975 8.6
      vertex 26.469 31.0975 3.6
    endloop
  endfacet
  facet normal 0.956925 0.290334 0
    outer loop
      vertex 26.469 30.1025 8.6
      vertex 26.395 30.3464 3.6
      vertex 26.395 30.3464 8.6
    endloop
  endfacet
  facet normal 0.956925 0.290334 0
    outer loop
      vertex 26.395 30.3464 3.6
      vertex 26.469 30.1025 8.6
      vertex 26.469 30.1025 3.6
    endloop
  endfacet
  facet normal 0.995176 0.0981049 0
    outer loop
      vertex 26.395 30.3464 8.6
      vertex 26.37 30.6 3.6
      vertex 26.37 30.6 8.6
    endloop
  endfacet
  facet normal 0.995176 0.0981049 0
    outer loop
      vertex 26.37 30.6 3.6
      vertex 26.395 30.3464 8.6
      vertex 26.395 30.3464 3.6
    endloop
  endfacet
  facet normal 0.77296 0.634455 0
    outer loop
      vertex 26.7508 29.6808 8.6
      vertex 26.5891 29.8778 3.6
      vertex 26.5891 29.8778 8.6
    endloop
  endfacet
  facet normal 0.77296 0.634455 0
    outer loop
      vertex 26.5891 29.8778 3.6
      vertex 26.7508 29.6808 8.6
      vertex 26.7508 29.6808 3.6
    endloop
  endfacet
  facet normal 0.471383 0.881929 -0
    outer loop
      vertex 27.1725 29.399 3.6
      vertex 26.9478 29.5191 8.6
      vertex 27.1725 29.399 8.6
    endloop
  endfacet
  facet normal 0.471383 0.881929 0
    outer loop
      vertex 26.9478 29.5191 8.6
      vertex 27.1725 29.399 3.6
      vertex 26.9478 29.5191 3.6
    endloop
  endfacet
  facet normal 0.0981049 0.995176 -0
    outer loop
      vertex 27.67 29.3 3.6
      vertex 27.4164 29.325 8.6
      vertex 27.67 29.3 8.6
    endloop
  endfacet
  facet normal 0.0981049 0.995176 0
    outer loop
      vertex 27.4164 29.325 8.6
      vertex 27.67 29.3 3.6
      vertex 27.4164 29.325 3.6
    endloop
  endfacet
  facet normal 0.290334 0.956925 -0
    outer loop
      vertex 27.4164 29.325 3.6
      vertex 27.1725 29.399 8.6
      vertex 27.4164 29.325 8.6
    endloop
  endfacet
  facet normal 0.290334 0.956925 0
    outer loop
      vertex 27.1725 29.399 8.6
      vertex 27.4164 29.325 3.6
      vertex 27.1725 29.399 3.6
    endloop
  endfacet
  facet normal -0.290291 -0.956939 0
    outer loop
      vertex 28.2065 33.2972 8.6
      vertex 28.7224 33.1407 10.6
      vertex 28.2065 33.2972 10.6
    endloop
  endfacet
  facet normal -0.290291 -0.956939 -0
    outer loop
      vertex 28.7224 33.1407 10.6
      vertex 28.2065 33.2972 8.6
      vertex 28.7224 33.1407 8.6
    endloop
  endfacet
  facet normal 0.290291 -0.956939 0
    outer loop
      vertex 26.6176 33.1407 8.6
      vertex 27.1335 33.2972 10.6
      vertex 26.6176 33.1407 10.6
    endloop
  endfacet
  facet normal 0.290291 -0.956939 0
    outer loop
      vertex 27.1335 33.2972 10.6
      vertex 26.6176 33.1407 8.6
      vertex 27.1335 33.2972 8.6
    endloop
  endfacet
  facet normal 0.772989 0.634419 0
    outer loop
      vertex 25.7255 28.6555 10.6
      vertex 25.3835 29.0722 8.6
      vertex 25.3835 29.0722 10.6
    endloop
  endfacet
  facet normal 0.772989 0.634419 0
    outer loop
      vertex 25.3835 29.0722 8.6
      vertex 25.7255 28.6555 10.6
      vertex 25.7255 28.6555 8.6
    endloop
  endfacet
  facet normal 0.772989 -0.634419 0
    outer loop
      vertex 25.3835 32.1278 10.6
      vertex 25.7255 32.5445 8.6
      vertex 25.7255 32.5445 10.6
    endloop
  endfacet
  facet normal 0.772989 -0.634419 0
    outer loop
      vertex 25.7255 32.5445 8.6
      vertex 25.3835 32.1278 10.6
      vertex 25.3835 32.1278 8.6
    endloop
  endfacet
  facet normal -0.995192 0.0979425 0
    outer loop
      vertex 30.3672 30.0635 8.6
      vertex 30.42 30.6 10.6
      vertex 30.42 30.6 8.6
    endloop
  endfacet
  facet normal -0.995192 0.0979425 0
    outer loop
      vertex 30.42 30.6 10.6
      vertex 30.3672 30.0635 8.6
      vertex 30.3672 30.0635 10.6
    endloop
  endfacet
  facet normal 0.956939 -0.290291 0
    outer loop
      vertex 24.9728 31.1365 10.6
      vertex 25.1293 31.6524 8.6
      vertex 25.1293 31.6524 10.6
    endloop
  endfacet
  facet normal 0.956939 -0.290291 0
    outer loop
      vertex 25.1293 31.6524 8.6
      vertex 24.9728 31.1365 10.6
      vertex 24.9728 31.1365 8.6
    endloop
  endfacet
  facet normal -0.881849 -0.471531 0
    outer loop
      vertex 30.2107 31.6524 8.6
      vertex 29.9565 32.1278 10.6
      vertex 29.9565 32.1278 8.6
    endloop
  endfacet
  facet normal -0.881849 -0.471531 0
    outer loop
      vertex 29.9565 32.1278 10.6
      vertex 30.2107 31.6524 8.6
      vertex 30.2107 31.6524 10.6
    endloop
  endfacet
  facet normal 0.995192 0.0979425 0
    outer loop
      vertex 24.9728 30.0635 10.6
      vertex 24.92 30.6 8.6
      vertex 24.92 30.6 10.6
    endloop
  endfacet
  facet normal 0.995192 0.0979425 0
    outer loop
      vertex 24.92 30.6 8.6
      vertex 24.9728 30.0635 10.6
      vertex 24.9728 30.0635 8.6
    endloop
  endfacet
  facet normal -0.995192 -0.0979425 0
    outer loop
      vertex 30.42 30.6 8.6
      vertex 30.3672 31.1365 10.6
      vertex 30.3672 31.1365 8.6
    endloop
  endfacet
  facet normal -0.995192 -0.0979425 0
    outer loop
      vertex 30.3672 31.1365 10.6
      vertex 30.42 30.6 8.6
      vertex 30.42 30.6 10.6
    endloop
  endfacet
  facet normal 0.634419 0.772989 -0
    outer loop
      vertex 26.1422 28.3135 8.6
      vertex 25.7255 28.6555 10.6
      vertex 26.1422 28.3135 10.6
    endloop
  endfacet
  facet normal 0.634419 0.772989 0
    outer loop
      vertex 25.7255 28.6555 10.6
      vertex 26.1422 28.3135 8.6
      vertex 25.7255 28.6555 8.6
    endloop
  endfacet
  facet normal -0.634419 0.772989 0
    outer loop
      vertex 29.6145 28.6555 8.6
      vertex 29.1978 28.3135 10.6
      vertex 29.6145 28.6555 10.6
    endloop
  endfacet
  facet normal -0.634419 0.772989 0
    outer loop
      vertex 29.1978 28.3135 10.6
      vertex 29.6145 28.6555 8.6
      vertex 29.1978 28.3135 8.6
    endloop
  endfacet
  facet normal -0.956939 -0.290291 0
    outer loop
      vertex 30.3672 31.1365 8.6
      vertex 30.2107 31.6524 10.6
      vertex 30.2107 31.6524 8.6
    endloop
  endfacet
  facet normal -0.956939 -0.290291 0
    outer loop
      vertex 30.2107 31.6524 10.6
      vertex 30.3672 31.1365 8.6
      vertex 30.3672 31.1365 10.6
    endloop
  endfacet
  facet normal 0.290291 0.956939 -0
    outer loop
      vertex 27.1335 27.9028 8.6
      vertex 26.6176 28.0593 10.6
      vertex 27.1335 27.9028 10.6
    endloop
  endfacet
  facet normal 0.290291 0.956939 0
    outer loop
      vertex 26.6176 28.0593 10.6
      vertex 27.1335 27.9028 8.6
      vertex 26.6176 28.0593 8.6
    endloop
  endfacet
  facet normal -0.471531 -0.881849 0
    outer loop
      vertex 28.7224 33.1407 8.6
      vertex 29.1978 32.8865 10.6
      vertex 28.7224 33.1407 10.6
    endloop
  endfacet
  facet normal -0.471531 -0.881849 -0
    outer loop
      vertex 29.1978 32.8865 10.6
      vertex 28.7224 33.1407 8.6
      vertex 29.1978 32.8865 8.6
    endloop
  endfacet
  facet normal 0.471531 -0.881849 0
    outer loop
      vertex 26.1422 32.8865 8.6
      vertex 26.6176 33.1407 10.6
      vertex 26.1422 32.8865 10.6
    endloop
  endfacet
  facet normal 0.471531 -0.881849 0
    outer loop
      vertex 26.6176 33.1407 10.6
      vertex 26.1422 32.8865 8.6
      vertex 26.6176 33.1407 8.6
    endloop
  endfacet
  facet normal -0.881849 0.471531 0
    outer loop
      vertex 29.9565 29.0722 8.6
      vertex 30.2107 29.5476 10.6
      vertex 30.2107 29.5476 8.6
    endloop
  endfacet
  facet normal -0.881849 0.471531 0
    outer loop
      vertex 30.2107 29.5476 10.6
      vertex 29.9565 29.0722 8.6
      vertex 29.9565 29.0722 10.6
    endloop
  endfacet
  facet normal -0.471531 0.881849 0
    outer loop
      vertex 29.1978 28.3135 8.6
      vertex 28.7224 28.0593 10.6
      vertex 29.1978 28.3135 10.6
    endloop
  endfacet
  facet normal -0.471531 0.881849 0
    outer loop
      vertex 28.7224 28.0593 10.6
      vertex 29.1978 28.3135 8.6
      vertex 28.7224 28.0593 8.6
    endloop
  endfacet
  facet normal -0.772989 0.634419 0
    outer loop
      vertex 29.6145 28.6555 8.6
      vertex 29.9565 29.0722 10.6
      vertex 29.9565 29.0722 8.6
    endloop
  endfacet
  facet normal -0.772989 0.634419 0
    outer loop
      vertex 29.9565 29.0722 10.6
      vertex 29.6145 28.6555 8.6
      vertex 29.6145 28.6555 10.6
    endloop
  endfacet
  facet normal -0.634419 -0.772989 0
    outer loop
      vertex 29.1978 32.8865 8.6
      vertex 29.6145 32.5445 10.6
      vertex 29.1978 32.8865 10.6
    endloop
  endfacet
  facet normal -0.634419 -0.772989 -0
    outer loop
      vertex 29.6145 32.5445 10.6
      vertex 29.1978 32.8865 8.6
      vertex 29.6145 32.5445 8.6
    endloop
  endfacet
  facet normal -0.956939 0.290291 0
    outer loop
      vertex 30.2107 29.5476 8.6
      vertex 30.3672 30.0635 10.6
      vertex 30.3672 30.0635 8.6
    endloop
  endfacet
  facet normal -0.956939 0.290291 0
    outer loop
      vertex 30.3672 30.0635 10.6
      vertex 30.2107 29.5476 8.6
      vertex 30.2107 29.5476 10.6
    endloop
  endfacet
  facet normal 0.881849 -0.471531 0
    outer loop
      vertex 25.1293 31.6524 10.6
      vertex 25.3835 32.1278 8.6
      vertex 25.3835 32.1278 10.6
    endloop
  endfacet
  facet normal 0.881849 -0.471531 0
    outer loop
      vertex 25.3835 32.1278 8.6
      vertex 25.1293 31.6524 10.6
      vertex 25.1293 31.6524 8.6
    endloop
  endfacet
  facet normal 0.995192 -0.0979425 0
    outer loop
      vertex 24.92 30.6 10.6
      vertex 24.9728 31.1365 8.6
      vertex 24.9728 31.1365 10.6
    endloop
  endfacet
  facet normal 0.995192 -0.0979425 0
    outer loop
      vertex 24.9728 31.1365 8.6
      vertex 24.92 30.6 10.6
      vertex 24.92 30.6 8.6
    endloop
  endfacet
  facet normal -0.772989 -0.634419 0
    outer loop
      vertex 29.9565 32.1278 8.6
      vertex 29.6145 32.5445 10.6
      vertex 29.6145 32.5445 8.6
    endloop
  endfacet
  facet normal -0.772989 -0.634419 0
    outer loop
      vertex 29.6145 32.5445 10.6
      vertex 29.9565 32.1278 8.6
      vertex 29.9565 32.1278 10.6
    endloop
  endfacet
  facet normal 0 0 1
    outer loop
      vertex 28.97 30.6 8.6
      vertex 30.42 30.6 8.6
      vertex 30.3672 31.1365 8.6
    endloop
  endfacet
  facet normal 0 0 1
    outer loop
      vertex 28.945 30.8536 8.6
      vertex 30.3672 31.1365 8.6
      vertex 30.2107 31.6524 8.6
    endloop
  endfacet
  facet normal 0 0 1
    outer loop
      vertex 30.42 30.6 8.6
      vertex 28.97 30.6 8.6
      vertex 30.3672 30.0635 8.6
    endloop
  endfacet
  facet normal 0 0 1
    outer loop
      vertex 28.871 31.0975 8.6
      vertex 30.2107 31.6524 8.6
      vertex 29.9565 32.1278 8.6
    endloop
  endfacet
  facet normal -0 0 1
    outer loop
      vertex 28.945 30.3464 8.6
      vertex 30.3672 30.0635 8.6
      vertex 28.97 30.6 8.6
    endloop
  endfacet
  facet normal 0 0 1
    outer loop
      vertex 28.7509 31.3222 8.6
      vertex 29.9565 32.1278 8.6
      vertex 29.6145 32.5445 8.6
    endloop
  endfacet
  facet normal 0 0 1
    outer loop
      vertex 30.3672 30.0635 8.6
      vertex 28.945 30.3464 8.6
      vertex 30.2107 29.5476 8.6
    endloop
  endfacet
  facet normal 0 0 1
    outer loop
      vertex 28.5892 31.5192 8.6
      vertex 29.6145 32.5445 8.6
      vertex 29.1978 32.8865 8.6
    endloop
  endfacet
  facet normal -0 0 1
    outer loop
      vertex 28.871 30.1025 8.6
      vertex 30.2107 29.5476 8.6
      vertex 28.945 30.3464 8.6
    endloop
  endfacet
  facet normal 0 0 1
    outer loop
      vertex 30.2107 29.5476 8.6
      vertex 28.871 30.1025 8.6
      vertex 29.9565 29.0722 8.6
    endloop
  endfacet
  facet normal 0 0 1
    outer loop
      vertex 30.3672 31.1365 8.6
      vertex 28.945 30.8536 8.6
      vertex 28.97 30.6 8.6
    endloop
  endfacet
  facet normal 0 0 1
    outer loop
      vertex 30.2107 31.6524 8.6
      vertex 28.871 31.0975 8.6
      vertex 28.945 30.8536 8.6
    endloop
  endfacet
  facet normal 0 0 1
    outer loop
      vertex 29.9565 32.1278 8.6
      vertex 28.7509 31.3222 8.6
      vertex 28.871 31.0975 8.6
    endloop
  endfacet
  facet normal 0 0 1
    outer loop
      vertex 28.3922 31.6809 8.6
      vertex 29.1978 32.8865 8.6
      vertex 28.7224 33.1407 8.6
    endloop
  endfacet
  facet normal 0 0 1
    outer loop
      vertex 29.6145 32.5445 8.6
      vertex 28.5892 31.5192 8.6
      vertex 28.7509 31.3222 8.6
    endloop
  endfacet
  facet normal 0 0 1
    outer loop
      vertex 29.1978 32.8865 8.6
      vertex 28.3922 31.6809 8.6
      vertex 28.5892 31.5192 8.6
    endloop
  endfacet
  facet normal 0 0 1
    outer loop
      vertex 28.1675 31.801 8.6
      vertex 28.7224 33.1407 8.6
      vertex 28.2065 33.2972 8.6
    endloop
  endfacet
  facet normal 0 0 1
    outer loop
      vertex 28.7224 33.1407 8.6
      vertex 28.1675 31.801 8.6
      vertex 28.3922 31.6809 8.6
    endloop
  endfacet
  facet normal 0 0 1
    outer loop
      vertex 28.2065 33.2972 8.6
      vertex 27.9236 31.875 8.6
      vertex 28.1675 31.801 8.6
    endloop
  endfacet
  facet normal 0 0 1
    outer loop
      vertex 27.67 33.35 8.6
      vertex 27.9236 31.875 8.6
      vertex 28.2065 33.2972 8.6
    endloop
  endfacet
  facet normal 0 0 1
    outer loop
      vertex 27.67 33.35 8.6
      vertex 27.67 31.9 8.6
      vertex 27.9236 31.875 8.6
    endloop
  endfacet
  facet normal 0 0 1
    outer loop
      vertex 27.67 33.35 8.6
      vertex 27.4164 31.875 8.6
      vertex 27.67 31.9 8.6
    endloop
  endfacet
  facet normal -0 0 1
    outer loop
      vertex 27.1335 33.2972 8.6
      vertex 27.4164 31.875 8.6
      vertex 27.67 33.35 8.6
    endloop
  endfacet
  facet normal 0 0 1
    outer loop
      vertex 27.4164 31.875 8.6
      vertex 27.1335 33.2972 8.6
      vertex 27.1725 31.801 8.6
    endloop
  endfacet
  facet normal -0 0 1
    outer loop
      vertex 26.6176 33.1407 8.6
      vertex 27.1725 31.801 8.6
      vertex 27.1335 33.2972 8.6
    endloop
  endfacet
  facet normal 0 0 1
    outer loop
      vertex 27.1725 31.801 8.6
      vertex 26.6176 33.1407 8.6
      vertex 26.9478 31.6809 8.6
    endloop
  endfacet
  facet normal -0 0 1
    outer loop
      vertex 26.1422 32.8865 8.6
      vertex 26.9478 31.6809 8.6
      vertex 26.6176 33.1407 8.6
    endloop
  endfacet
  facet normal 0 0 1
    outer loop
      vertex 26.9478 31.6809 8.6
      vertex 26.1422 32.8865 8.6
      vertex 26.7508 31.5192 8.6
    endloop
  endfacet
  facet normal -0 0 1
    outer loop
      vertex 25.7255 32.5445 8.6
      vertex 26.7508 31.5192 8.6
      vertex 26.1422 32.8865 8.6
    endloop
  endfacet
  facet normal 0 0 1
    outer loop
      vertex 26.7508 31.5192 8.6
      vertex 25.7255 32.5445 8.6
      vertex 26.5891 31.3222 8.6
    endloop
  endfacet
  facet normal -0 0 1
    outer loop
      vertex 25.3835 32.1278 8.6
      vertex 26.5891 31.3222 8.6
      vertex 25.7255 32.5445 8.6
    endloop
  endfacet
  facet normal 0 0 1
    outer loop
      vertex 26.5891 31.3222 8.6
      vertex 25.3835 32.1278 8.6
      vertex 26.469 31.0975 8.6
    endloop
  endfacet
  facet normal -0 0 1
    outer loop
      vertex 28.7509 29.8778 8.6
      vertex 29.9565 29.0722 8.6
      vertex 28.871 30.1025 8.6
    endloop
  endfacet
  facet normal 0 0 1
    outer loop
      vertex 29.9565 29.0722 8.6
      vertex 28.7509 29.8778 8.6
      vertex 29.6145 28.6555 8.6
    endloop
  endfacet
  facet normal -0 0 1
    outer loop
      vertex 28.5892 29.6808 8.6
      vertex 29.6145 28.6555 8.6
      vertex 28.7509 29.8778 8.6
    endloop
  endfacet
  facet normal 0 0 1
    outer loop
      vertex 29.6145 28.6555 8.6
      vertex 28.5892 29.6808 8.6
      vertex 29.1978 28.3135 8.6
    endloop
  endfacet
  facet normal -0 0 1
    outer loop
      vertex 28.3922 29.5191 8.6
      vertex 29.1978 28.3135 8.6
      vertex 28.5892 29.6808 8.6
    endloop
  endfacet
  facet normal 0 0 1
    outer loop
      vertex 29.1978 28.3135 8.6
      vertex 28.3922 29.5191 8.6
      vertex 28.7224 28.0593 8.6
    endloop
  endfacet
  facet normal -0 0 1
    outer loop
      vertex 28.1675 29.399 8.6
      vertex 28.7224 28.0593 8.6
      vertex 28.3922 29.5191 8.6
    endloop
  endfacet
  facet normal 0 0 1
    outer loop
      vertex 28.7224 28.0593 8.6
      vertex 28.1675 29.399 8.6
      vertex 28.2065 27.9028 8.6
    endloop
  endfacet
  facet normal -0 0 1
    outer loop
      vertex 27.9236 29.325 8.6
      vertex 28.2065 27.9028 8.6
      vertex 28.1675 29.399 8.6
    endloop
  endfacet
  facet normal -0 0 1
    outer loop
      vertex 27.67 29.3 8.6
      vertex 28.2065 27.9028 8.6
      vertex 27.9236 29.325 8.6
    endloop
  endfacet
  facet normal 0 0 1
    outer loop
      vertex 27.67 29.3 8.6
      vertex 27.67 27.85 8.6
      vertex 28.2065 27.9028 8.6
    endloop
  endfacet
  facet normal 0 0 1
    outer loop
      vertex 27.4164 29.325 8.6
      vertex 27.67 27.85 8.6
      vertex 27.67 29.3 8.6
    endloop
  endfacet
  facet normal 0 0 1
    outer loop
      vertex 27.1335 27.9028 8.6
      vertex 27.4164 29.325 8.6
      vertex 27.1725 29.399 8.6
    endloop
  endfacet
  facet normal 0 0 1
    outer loop
      vertex 27.4164 29.325 8.6
      vertex 27.1335 27.9028 8.6
      vertex 27.67 27.85 8.6
    endloop
  endfacet
  facet normal 0 0 1
    outer loop
      vertex 26.6176 28.0593 8.6
      vertex 27.1725 29.399 8.6
      vertex 26.9478 29.5191 8.6
    endloop
  endfacet
  facet normal 0 0 1
    outer loop
      vertex 26.1422 28.3135 8.6
      vertex 26.9478 29.5191 8.6
      vertex 26.7508 29.6808 8.6
    endloop
  endfacet
  facet normal 0 0 1
    outer loop
      vertex 27.1725 29.399 8.6
      vertex 26.6176 28.0593 8.6
      vertex 27.1335 27.9028 8.6
    endloop
  endfacet
  facet normal 0 0 1
    outer loop
      vertex 25.7255 28.6555 8.6
      vertex 26.7508 29.6808 8.6
      vertex 26.5891 29.8778 8.6
    endloop
  endfacet
  facet normal 0 0 1
    outer loop
      vertex 25.3835 29.0722 8.6
      vertex 26.5891 29.8778 8.6
      vertex 26.469 30.1025 8.6
    endloop
  endfacet
  facet normal 0 0 1
    outer loop
      vertex 25.1293 29.5476 8.6
      vertex 26.469 30.1025 8.6
      vertex 26.395 30.3464 8.6
    endloop
  endfacet
  facet normal 0 0 1
    outer loop
      vertex 24.9728 30.0635 8.6
      vertex 26.395 30.3464 8.6
      vertex 26.37 30.6 8.6
    endloop
  endfacet
  facet normal -0 0 1
    outer loop
      vertex 25.1293 31.6524 8.6
      vertex 26.469 31.0975 8.6
      vertex 25.3835 32.1278 8.6
    endloop
  endfacet
  facet normal 0 0 1
    outer loop
      vertex 26.9478 29.5191 8.6
      vertex 26.1422 28.3135 8.6
      vertex 26.6176 28.0593 8.6
    endloop
  endfacet
  facet normal 0 0 1
    outer loop
      vertex 26.469 31.0975 8.6
      vertex 25.1293 31.6524 8.6
      vertex 26.395 30.8536 8.6
    endloop
  endfacet
  facet normal 0 0 1
    outer loop
      vertex 26.7508 29.6808 8.6
      vertex 25.7255 28.6555 8.6
      vertex 26.1422 28.3135 8.6
    endloop
  endfacet
  facet normal -0 0 1
    outer loop
      vertex 24.9728 31.1365 8.6
      vertex 26.395 30.8536 8.6
      vertex 25.1293 31.6524 8.6
    endloop
  endfacet
  facet normal 0 0 1
    outer loop
      vertex 26.5891 29.8778 8.6
      vertex 25.3835 29.0722 8.6
      vertex 25.7255 28.6555 8.6
    endloop
  endfacet
  facet normal 0 0 1
    outer loop
      vertex 26.395 30.8536 8.6
      vertex 24.9728 31.1365 8.6
      vertex 26.37 30.6 8.6
    endloop
  endfacet
  facet normal 0 0 1
    outer loop
      vertex 26.469 30.1025 8.6
      vertex 25.1293 29.5476 8.6
      vertex 25.3835 29.0722 8.6
    endloop
  endfacet
  facet normal 0 0 1
    outer loop
      vertex 24.92 30.6 8.6
      vertex 26.37 30.6 8.6
      vertex 24.9728 31.1365 8.6
    endloop
  endfacet
  facet normal 0 0 1
    outer loop
      vertex 26.395 30.3464 8.6
      vertex 24.9728 30.0635 8.6
      vertex 25.1293 29.5476 8.6
    endloop
  endfacet
  facet normal 0 0 1
    outer loop
      vertex 26.37 30.6 8.6
      vertex 24.92 30.6 8.6
      vertex 24.9728 30.0635 8.6
    endloop
  endfacet
  facet normal 0.634419 -0.772989 0
    outer loop
      vertex 25.7255 32.5445 8.6
      vertex 26.1422 32.8865 10.6
      vertex 25.7255 32.5445 10.6
    endloop
  endfacet
  facet normal 0.634419 -0.772989 0
    outer loop
      vertex 26.1422 32.8865 10.6
      vertex 25.7255 32.5445 8.6
      vertex 26.1422 32.8865 8.6
    endloop
  endfacet
  facet normal 0.881849 0.471531 0
    outer loop
      vertex 25.3835 29.0722 10.6
      vertex 25.1293 29.5476 8.6
      vertex 25.1293 29.5476 10.6
    endloop
  endfacet
  facet normal 0.881849 0.471531 0
    outer loop
      vertex 25.1293 29.5476 8.6
      vertex 25.3835 29.0722 10.6
      vertex 25.3835 29.0722 8.6
    endloop
  endfacet
  facet normal -0.0979425 0.995192 0
    outer loop
      vertex 28.2065 27.9028 8.6
      vertex 27.67 27.85 10.6
      vertex 28.2065 27.9028 10.6
    endloop
  endfacet
  facet normal -0.0979425 0.995192 0
    outer loop
      vertex 27.67 27.85 10.6
      vertex 28.2065 27.9028 8.6
      vertex 27.67 27.85 8.6
    endloop
  endfacet
  facet normal -0.290291 0.956939 0
    outer loop
      vertex 28.7224 28.0593 8.6
      vertex 28.2065 27.9028 10.6
      vertex 28.7224 28.0593 10.6
    endloop
  endfacet
  facet normal -0.290291 0.956939 0
    outer loop
      vertex 28.2065 27.9028 10.6
      vertex 28.7224 28.0593 8.6
      vertex 28.2065 27.9028 8.6
    endloop
  endfacet
  facet normal 0.956939 0.290291 0
    outer loop
      vertex 25.1293 29.5476 10.6
      vertex 24.9728 30.0635 8.6
      vertex 24.9728 30.0635 10.6
    endloop
  endfacet
  facet normal 0.956939 0.290291 0
    outer loop
      vertex 24.9728 30.0635 8.6
      vertex 25.1293 29.5476 10.6
      vertex 25.1293 29.5476 8.6
    endloop
  endfacet
  facet normal -0.0979425 -0.995192 0
    outer loop
      vertex 27.67 33.35 8.6
      vertex 28.2065 33.2972 10.6
      vertex 27.67 33.35 10.6
    endloop
  endfacet
  facet normal -0.0979425 -0.995192 -0
    outer loop
      vertex 28.2065 33.2972 10.6
      vertex 27.67 33.35 8.6
      vertex 28.2065 33.2972 8.6
    endloop
  endfacet
  facet normal 0.0979425 -0.995192 0
    outer loop
      vertex 27.1335 33.2972 8.6
      vertex 27.67 33.35 10.6
      vertex 27.1335 33.2972 10.6
    endloop
  endfacet
  facet normal 0.0979425 -0.995192 0
    outer loop
      vertex 27.67 33.35 10.6
      vertex 27.1335 33.2972 8.6
      vertex 27.67 33.35 8.6
    endloop
  endfacet
  facet normal 0.0979425 0.995192 -0
    outer loop
      vertex 27.67 27.85 8.6
      vertex 27.1335 27.9028 10.6
      vertex 27.67 27.85 10.6
    endloop
  endfacet
  facet normal 0.0979425 0.995192 0
    outer loop
      vertex 27.1335 27.9028 10.6
      vertex 27.67 27.85 8.6
      vertex 27.1335 27.9028 8.6
    endloop
  endfacet
  facet normal 0.471531 0.881849 -0
    outer loop
      vertex 26.6176 28.0593 8.6
      vertex 26.1422 28.3135 10.6
      vertex 26.6176 28.0593 10.6
    endloop
  endfacet
  facet normal 0.471531 0.881849 0
    outer loop
      vertex 26.1422 28.3135 10.6
      vertex 26.6176 28.0593 8.6
      vertex 26.1422 28.3135 8.6
    endloop
  endfacet
endsolid OpenSCAD_Model
