solid OpenSCAD_Model
  facet normal -0 0 1
    outer loop
      vertex 0 1.8 1.6
      vertex 29.8 0 1.6
      vertex 29.8 1.8 1.6
    endloop
  endfacet
  facet normal 0 0 1
    outer loop
      vertex 29.8 0 1.6
      vertex 0 1.8 1.6
      vertex 0 0 1.6
    endloop
  endfacet
  facet normal 0 0 -1
    outer loop
      vertex 0 0 0
      vertex 29.8 1.8 0
      vertex 29.8 0 0
    endloop
  endfacet
  facet normal -0 0 -1
    outer loop
      vertex 29.8 1.8 0
      vertex 0 0 0
      vertex 0 1.8 0
    endloop
  endfacet
  facet normal 0 -1 0
    outer loop
      vertex 0 0 0
      vertex 29.8 0 1.6
      vertex 0 0 1.6
    endloop
  endfacet
  facet normal 0 -1 -0
    outer loop
      vertex 29.8 0 1.6
      vertex 0 0 0
      vertex 29.8 0 0
    endloop
  endfacet
  facet normal 1 -0 0
    outer loop
      vertex 29.8 0 1.6
      vertex 29.8 1.8 0
      vertex 29.8 1.8 1.6
    endloop
  endfacet
  facet normal 1 0 0
    outer loop
      vertex 29.8 1.8 0
      vertex 29.8 0 1.6
      vertex 29.8 0 0
    endloop
  endfacet
  facet normal 0 1 -0
    outer loop
      vertex 29.8 1.8 0
      vertex 0 1.8 1.6
      vertex 29.8 1.8 1.6
    endloop
  endfacet
  facet normal 0 1 0
    outer loop
      vertex 0 1.8 1.6
      vertex 29.8 1.8 0
      vertex 0 1.8 0
    endloop
  endfacet
  facet normal -1 0 0
    outer loop
      vertex 0 0 0
      vertex 0 1.8 1.6
      vertex 0 1.8 0
    endloop
  endfacet
  facet normal -1 -0 0
    outer loop
      vertex 0 1.8 1.6
      vertex 0 0 0
      vertex 0 0 1.6
    endloop
  endfacet
endsolid OpenSCAD_Model
